<?xml version="1.0" standalone="no"?>
<!DOCTYPE svg PUBLIC "-//W3C//DTD SVG 20010904//EN"
 "http://www.w3.org/TR/2001/REC-SVG-20010904/DTD/svg10.dtd">
<svg version="1.0" xmlns="http://www.w3.org/2000/svg"
 width="900.000000pt" height="900.000000pt" viewBox="0 0 900.000000 900.000000"
 preserveAspectRatio="xMidYMid meet">

<g transform="translate(0.000000,900.000000) scale(0.100000,-0.100000)"
fill="#000000" stroke="none">
<path d="M4210 8980 c-122 -7 -268 -24 -435 -49 -184 -28 -535 -114 -695 -170
-421 -149 -710 -290 -1045 -509 -151 -98 -384 -271 -435 -322 -3 -3 -48 -43
-100 -89 -398 -352 -758 -819 -1005 -1306 -503 -989 -624 -2105 -345 -3181
157 -608 454 -1199 841 -1674 43 -52 95 -116 116 -142 75 -93 430 -435 554
-534 708 -568 1495 -893 2389 -988 183 -20 709 -20 889 -1 316 34 549 79 821
159 596 174 1115 450 1610 855 110 90 457 428 523 509 21 26 73 90 116 142
147 181 296 401 417 618 613 1092 738 2408 344 3604 -246 743 -695 1430 -1270
1939 -52 46 -97 86 -100 89 -51 51 -284 224 -435 322 -607 397 -1245 625
-1990 713 -156 18 -578 27 -765 15z m669 -125 c820 -76 1542 -346 2205 -827
61 -45 113 -84 116 -87 3 -3 23 -20 45 -36 66 -49 203 -172 318 -284 571 -558
980 -1262 1177 -2027 44 -168 49 -194 80 -369 46 -268 54 -376 54 -735 0 -351
-6 -444 -50 -710 -234 -1437 -1188 -2678 -2519 -3281 -116 -52 -274 -115 -375
-149 -123 -42 -282 -90 -296 -90 -8 0 -14 47 -18 148 -7 172 -32 642 -46 857
-5 83 -16 258 -25 390 -28 455 -35 763 -35 1625 0 889 11 1297 36 1358 10 26
96 162 135 216 4 5 24 -5 45 -22 22 -17 107 -65 189 -107 83 -41 184 -93 225
-115 116 -61 249 -93 448 -106 l102 -6 0 -38 c0 -21 -18 -181 -40 -357 -89
-719 -92 -756 -94 -1068 0 -279 8 -366 51 -500 34 -110 112 -209 188 -241 95
-39 242 -25 363 37 386 193 722 847 979 1909 25 102 47 205 50 230 5 41 2 47
-19 58 -13 8 -44 12 -69 10 l-44 -3 -22 -110 c-60 -304 -126 -579 -194 -805
-110 -364 -235 -637 -361 -782 -184 -214 -246 -74 -203 462 16 202 36 400 70
690 35 303 29 408 -31 582 -53 155 -102 219 -204 266 -72 34 -197 41 -288 18
-65 -17 -109 -15 -167 10 -61 25 -68 43 -76 182 -5 94 -13 141 -29 182 -70
180 -172 213 -478 154 l-32 -6 69 110 c127 199 243 451 295 642 64 234 87 512
52 632 -30 104 -62 136 -404 394 -12 8 -12 23 -3 85 45 312 52 450 25 558 -37
146 -126 267 -235 316 -53 23 -80 29 -173 33 -157 7 -263 -21 -349 -90 l-27
-22 -33 31 c-17 17 -52 41 -77 54 -41 22 -57 24 -175 23 -113 -1 -140 -5 -210
-28 -89 -30 -173 -88 -208 -142 -21 -33 -24 -34 -67 -29 -110 14 -297 -28
-441 -100 -84 -42 -210 -134 -239 -175 -14 -20 -42 -35 -102 -54 -73 -25 -133
-51 -218 -97 -162 -88 -377 -274 -443 -385 -66 -110 -66 -114 -57 -650 17
-936 13 -906 187 -1374 125 -333 203 -573 203 -621 0 -15 -20 -26 -182 -98
-63 -28 -193 -71 -215 -71 -5 0 -14 28 -20 63 -33 189 -138 307 -273 307 -142
0 -320 -137 -320 -246 0 -13 -26 -79 -59 -146 -89 -186 -159 -392 -237 -703
l-43 -170 0 405 c-2 574 32 1633 86 2740 16 331 13 461 -11 611 -58 347 -245
547 -516 549 l-65 1 65 60 c152 139 430 340 650 471 571 338 1193 535 1880
597 161 14 552 12 729 -4z m225 -837 c103 -31 166 -164 166 -350 l0 -103 -84
-27 c-94 -30 -174 -76 -246 -144 -27 -25 -54 -43 -59 -39 -6 3 -11 23 -11 43
0 48 -34 243 -53 304 -20 64 -60 130 -97 161 -38 33 -38 50 3 81 42 32 74 44
177 66 104 22 150 24 204 8z m692 -23 c44 -23 66 -43 94 -85 90 -134 98 -227
48 -582 -5 -43 -14 -78 -19 -78 -5 0 -103 58 -217 128 -114 71 -228 137 -254
147 l-48 18 0 56 c0 79 -18 237 -32 283 -10 35 -9 40 13 64 54 58 141 84 266
81 78 -2 99 -7 149 -32z m-1212 -189 c88 -37 123 -126 166 -421 6 -44 13 -89
16 -101 3 -18 -13 -31 -99 -81 -56 -33 -128 -82 -160 -107 -38 -31 -59 -43
-61 -34 -2 7 -16 60 -31 118 -79 307 -100 364 -150 414 -48 49 -84 65 -156 73
l-62 6 24 20 c62 50 174 93 329 126 54 12 139 6 184 -13z m-3152 -278 c5 -89
-8 -614 -22 -908 -6 -118 -15 -307 -20 -420 -5 -113 -16 -347 -25 -520 -45
-922 -58 -1430 -52 -2059 5 -555 15 -777 47 -1037 45 -367 119 -597 221 -691
30 -27 87 -42 136 -36 92 11 141 32 273 118 420 272 825 1006 974 1765 13 69
27 157 31 195 9 100 13 115 33 115 18 0 209 53 322 89 36 11 68 21 72 21 10 0
20 -218 58 -1355 18 -540 13 -794 -29 -1330 -16 -209 -30 -412 -36 -535 -4
-63 -13 -185 -21 -270 -8 -85 -19 -207 -24 -270 -6 -63 -13 -120 -15 -127 -8
-25 -402 110 -660 226 -781 353 -1453 941 -1910 1670 -307 489 -517 1045 -609
1611 -44 266 -50 359 -50 710 0 359 8 467 54 735 31 175 36 201 80 369 167
649 491 1263 934 1771 85 98 218 235 227 235 4 0 9 -33 11 -72z m2690 10 c22
-6 48 -22 58 -35 22 -28 86 -222 131 -397 l33 -130 -29 -20 c-76 -55 -90 -73
-90 -115 0 -34 7 -47 44 -83 66 -66 68 -74 24 -96 -136 -68 -341 -48 -406 41
-17 22 -22 48 -27 135 -4 60 -9 113 -13 119 -3 5 -20 63 -37 129 -31 121 -45
144 -86 144 -59 0 -68 -59 -29 -191 15 -48 29 -130 34 -194 5 -60 16 -129 24
-152 8 -23 12 -45 9 -48 -3 -3 -26 -5 -52 -5 -26 0 -72 -5 -101 -11 -30 -6
-111 -10 -181 -10 -125 1 -128 0 -144 -24 -19 -29 -11 -60 21 -81 34 -22 135
-34 202 -23 185 28 249 31 449 19 234 -15 302 -7 404 44 l66 33 35 -23 c62
-39 113 -47 243 -40 l119 7 -44 -48 c-133 -142 -250 -393 -300 -640 -35 -177
-22 -263 41 -263 42 0 57 30 65 130 18 223 118 482 249 646 171 213 284 271
411 210 45 -22 192 -73 345 -120 116 -36 196 -107 268 -238 38 -70 45 -78 72
-78 32 0 70 30 70 56 0 32 -82 173 -134 230 -75 82 -134 113 -348 184 -174 57
-188 63 -188 85 0 13 -11 36 -24 52 l-24 27 -73 -22 c-320 -96 -529 -122 -645
-80 -37 13 -45 28 -16 28 53 0 263 94 319 143 42 37 73 96 73 139 0 44 -37
107 -80 136 -19 13 -35 27 -35 32 0 4 43 41 95 80 52 40 115 90 140 110 73 61
121 81 212 89 101 10 117 4 283 -94 279 -166 598 -389 710 -498 71 -70 74 -74
81 -131 10 -88 -2 -288 -25 -391 -42 -192 -149 -464 -255 -650 -86 -150 -234
-376 -302 -460 -58 -73 -328 -489 -340 -526 -28 -80 -37 -524 -31 -1594 3
-628 9 -1092 16 -1155 6 -58 17 -215 26 -350 29 -466 61 -950 76 -1168 7 -89
10 -164 8 -167 -8 -7 -117 -33 -214 -51 -520 -93 -1050 -96 -1553 -9 -149 26
-237 46 -246 56 -10 9 12 435 60 1139 8 129 14 376 14 620 1 223 5 527 10 675
6 197 5 379 -5 675 -18 500 -42 1055 -51 1135 -10 106 -49 237 -135 462 -104
274 -181 501 -210 618 -26 106 -37 333 -45 936 l-7 486 29 59 c73 148 384 390
574 448 212 64 306 77 382 54z m676 -542 c31 -30 21 -49 -49 -92 -88 -53 -174
-85 -250 -91 -77 -7 -137 10 -119 32 28 34 233 156 300 179 29 10 95 -6 118
-28z m-2107 -2616 c10 -14 22 -40 25 -57 6 -30 4 -33 -19 -33 -43 0 -78 22
-93 59 -20 48 -12 63 32 59 26 -2 43 -11 55 -28z m-101 -248 c25 -11 66 -23
93 -27 l47 -6 0 -42 c-1 -50 -23 -202 -45 -312 -10 -44 -21 -98 -25 -120 -5
-22 -29 -110 -53 -195 -105 -365 -251 -686 -409 -898 -66 -90 -82 -98 -75 -40
4 24 13 97 22 163 16 123 23 171 49 335 85 537 178 957 257 1164 l21 55 37
-29 c20 -16 56 -38 81 -48z"/>
</g>
</svg>
