<?xml version="1.0" standalone="no"?>
<!DOCTYPE svg PUBLIC "-//W3C//DTD SVG 20010904//EN"
 "http://www.w3.org/TR/2001/REC-SVG-20010904/DTD/svg10.dtd">
<svg version="1.0" xmlns="http://www.w3.org/2000/svg"
 width="158.000000pt" height="146.000000pt" viewBox="0 0 158.000000 146.000000"
 preserveAspectRatio="xMidYMid meet">
<metadata>
Created by potrace 1.10, written by Peter Selinger 2001-2011
</metadata>
<g transform="translate(0.000000,146.000000) scale(0.100000,-0.100000)"
fill="#074a84" stroke="none">
<path d="M555 1427 c7 -18 25 -75 40 -126 14 -51 44 -137 66 -192 21 -55 37
-104 34 -109 -3 -5 -26 -16 -50 -26 -25 -9 -44 -19 -41 -21 2 -2 21 3 41 11
21 9 43 16 49 16 7 0 29 -48 51 -107 21 -60 43 -114 48 -120 7 -9 -3 -18 -34
-33 -24 -11 -33 -17 -19 -13 14 4 45 12 70 18 54 14 56 18 104 180 40 131 49
177 71 335 17 122 30 174 50 194 13 12 12 15 -1 20 -9 3 -123 6 -254 6 l-239
0 14 -33z"/>
<path d="M329 1369 c-31 -21 -85 -70 -121 -108 -225 -243 -260 -604 -87 -899
35 -58 167 -200 208 -222 23 -12 23 -11 19 24 -3 25 0 36 9 36 8 0 6 7 -7 20
-13 13 -20 33 -20 60 0 33 7 48 41 85 l41 44 61 -51 c34 -28 82 -64 107 -80
24 -16 50 -38 58 -51 l13 -22 -6 23 c-5 19 -2 22 19 22 14 0 26 -6 27 -12 1
-23 18 26 17 52 l0 25 -7 -25 c-4 -16 -15 -26 -30 -28 -20 -3 -23 0 -17 15 6
14 5 16 -5 5 -20 -19 -37 -15 -97 28 -99 71 -128 104 -136 150 -8 48 -6 50 22
53 21 1 20 12 0 12 -6 0 -13 6 -16 14 -3 8 0 11 6 7 6 -4 8 1 5 13 -3 10 3 33
12 51 15 30 19 31 65 29 27 -2 53 0 56 4 4 4 27 7 51 7 23 0 43 4 43 8 0 5 11
15 25 22 14 7 23 15 21 17 -2 2 -21 -5 -42 -16 -55 -30 -71 -27 -79 12 -4 17
-25 79 -47 136 -22 58 -37 113 -35 122 3 10 2 19 -2 21 -6 3 -43 165 -46 208
-2 14 -6 34 -11 44 -4 11 -19 57 -33 102 l-26 82 -56 -39z"/>
<path d="M1170 1347 c0 -72 -12 -127 -28 -127 -14 0 -13 -2 1 -12 15 -11 16
-26 11 -121 -6 -98 -9 -110 -28 -117 -20 -8 -20 -9 4 -10 14 0 21 -4 15 -8 -5
-4 -12 -63 -13 -132 -2 -69 -7 -131 -11 -138 -4 -7 -1 -40 7 -73 13 -52 13
-76 2 -175 -7 -63 -17 -114 -22 -114 -5 0 -18 21 -29 47 -21 49 -65 97 -113
123 -15 8 -40 28 -55 45 -15 18 -34 35 -42 40 -33 18 80 -89 128 -122 46 -31
56 -45 80 -107 23 -59 28 -86 28 -163 0 -51 2 -93 4 -93 18 0 152 104 198 154
270 296 269 736 -2 1024 -40 42 -87 85 -104 95 l-31 18 0 -34z"/>
<path d="M593 993 c4 -3 10 -3 14 0 3 4 0 7 -7 7 -7 0 -10 -3 -7 -7z"/>
<path d="M563 983 c4 -3 10 -3 14 0 3 4 0 7 -7 7 -7 0 -10 -3 -7 -7z"/>
<path d="M528 973 c7 -3 16 -2 19 1 4 3 -2 6 -13 5 -11 0 -14 -3 -6 -6z"/>
<path d="M1078 973 c7 -3 16 -2 19 1 4 3 -2 6 -13 5 -11 0 -14 -3 -6 -6z"/>
<path d="M573 943 c4 -3 10 -3 14 0 3 4 0 7 -7 7 -7 0 -10 -3 -7 -7z"/>
<path d="M1088 943 c6 -2 18 -2 25 0 6 3 1 5 -13 5 -14 0 -19 -2 -12 -5z"/>
<path d="M543 933 c4 -3 10 -3 14 0 3 4 0 7 -7 7 -7 0 -10 -3 -7 -7z"/>
<path d="M1043 683 c4 -3 10 -3 14 0 3 4 0 7 -7 7 -7 0 -10 -3 -7 -7z"/>
<path d="M730 651 c14 -4 27 -17 30 -31 l6 -25 6 27 c6 34 2 38 -36 37 -29 -1
-29 -1 -6 -8z"/>
<path d="M800 622 c6 -13 14 -21 18 -18 3 4 -2 14 -12 24 -18 16 -18 16 -6 -6z"/>
<path d="M592 595 c0 -16 2 -22 5 -12 2 9 2 23 0 30 -3 6 -5 -1 -5 -18z"/>
<path d="M1013 573 c9 -2 23 -2 30 0 6 3 -1 5 -18 5 -16 0 -22 -2 -12 -5z"/>
<path d="M510 510 l-45 -7 47 -1 c26 -1 50 3 53 8 3 6 3 9 -2 8 -4 0 -28 -4
-53 -8z"/>
<path d="M469 467 c38 -40 68 -53 153 -63 64 -7 83 -22 76 -59 -4 -20 -2 -24
11 -20 11 3 30 -8 52 -31 31 -33 89 -71 89 -60 0 3 -11 11 -25 18 -37 20 -125
129 -125 155 0 21 -3 22 -20 13 -29 -15 -144 7 -178 34 -56 45 -66 49 -33 13z"/>
<path d="M678 195 c-3 -14 -1 -25 3 -25 5 0 9 11 9 25 0 14 -2 25 -4 25 -2 0
-6 -11 -8 -25z"/>
<path d="M385 190 c3 -5 8 -10 11 -10 3 0 2 5 -1 10 -3 6 -8 10 -11 10 -3 0
-2 -4 1 -10z"/>
<path d="M631 177 c-13 -21 -12 -21 5 -5 10 10 16 20 13 22 -3 3 -11 -5 -18
-17z"/>
<path d="M419 166 c8 -9 34 -29 58 -43 47 -27 49 -32 31 -53 -7 -7 2 -2 20 13
19 15 39 27 47 27 7 0 18 7 25 15 11 14 9 14 -16 0 -16 -8 -38 -15 -48 -15
-17 0 -15 6 15 37 l34 38 -35 -32 c-20 -18 -41 -33 -46 -33 -6 0 -31 14 -55
32 -24 17 -38 24 -30 14z"/>
<path d="M682 105 c0 -16 2 -22 5 -12 2 9 2 23 0 30 -3 6 -5 -1 -5 -18z"/>
<path d="M692 40 c0 -14 2 -19 5 -12 2 6 2 18 0 25 -3 6 -5 1 -5 -13z"/>
</g>
</svg>
