<?xml version="1.0" standalone="no"?>
<!DOCTYPE svg PUBLIC "-//W3C//DTD SVG 20010904//EN"
 "http://www.w3.org/TR/2001/REC-SVG-20010904/DTD/svg10.dtd">
<svg version="1.0" xmlns="http://www.w3.org/2000/svg"
 width="610.000000pt" height="282.000000pt" viewBox="0 0 610.000000 282.000000"
 preserveAspectRatio="xMidYMid meet">

<g transform="translate(0.000000,282.000000) scale(0.100000,-0.100000)"
fill="#000000" stroke="none">
<path d="M0 2600 l0 -220 3050 0 3050 0 0 220 0 220 -3050 0 -3050 0 0 -220z
m410 40 c0 -5 -7 -10 -15 -10 -8 0 -15 5 -15 10 0 6 7 10 15 10 8 0 15 -4 15
-10z m110 0 c0 -5 -7 -10 -15 -10 -8 0 -15 5 -15 10 0 6 7 10 15 10 8 0 15 -4
15 -10z m80 0 c0 -5 -7 -10 -15 -10 -8 0 -15 5 -15 10 0 6 7 10 15 10 8 0 15
-4 15 -10z m5264 -21 c23 23 36 29 41 21 5 -7 -9 -28 -34 -53 l-41 -42 -41 42
c-25 25 -39 46 -34 53 5 8 18 2 41 -21 l34 -33 34 33z m-5622 -21 c13 -43 13
-43 18 -13 5 26 9 30 39 31 19 0 36 5 39 12 4 14 32 16 32 2 0 -5 16 -10 35
-10 21 0 35 -5 35 -12 0 -9 3 -9 12 0 7 7 27 12 45 12 18 0 33 5 33 10 0 14
27 13 32 -1 2 -7 25 -11 53 -11 29 1 52 -4 57 -11 6 -9 8 -9 8 1 0 16 56 16
66 0 4 -6 2 -14 -5 -16 -11 -4 -11 -6 -1 -12 7 -4 10 -15 7 -23 -5 -12 -26
-15 -111 -15 l-106 -1 -2 32 -1 32 -4 -32 c-6 -48 -33 -44 -34 5 l-1 37 -10
-37 c-13 -49 -41 -51 -56 -5 l-10 32 -1 -32 c-1 -31 -3 -33 -36 -33 -32 0 -35
3 -35 28 0 22 -4 27 -25 27 -17 0 -25 -6 -25 -17 0 -12 6 -15 21 -11 16 4 20
2 17 -8 -6 -17 -90 -22 -100 -6 -5 8 -14 7 -32 -3 -14 -7 -28 -11 -31 -9 -2 3
4 26 13 52 22 61 46 63 64 5z"/>
<path d="M562 2585 c0 -16 2 -22 5 -12 2 9 2 23 0 30 -3 6 -5 -1 -5 -18z"/>
<path d="M372 2580 c0 -14 2 -19 5 -12 2 6 2 18 0 25 -3 6 -5 1 -5 -13z"/>
<path d="M3203 2005 c0 -33 2 -45 4 -27 2 18 2 45 0 60 -2 15 -4 0 -4 -33z"/>
<path d="M306 2041 c-4 -5 3 -7 14 -4 23 6 26 13 6 13 -8 0 -17 -4 -20 -9z"/>
<path d="M1218 2037 c-2 -7 -1 -25 3 -42 7 -30 7 -30 8 -3 0 14 5 28 10 30 5
2 3 8 -4 15 -10 9 -14 9 -17 0z"/>
<path d="M3159 2039 c-2 -29 3 -74 9 -81 4 -4 6 13 5 38 -1 43 -12 74 -14 43z"/>
<path d="M387 2024 c-4 -4 -7 -12 -7 -18 0 -6 4 -5 9 3 12 19 41 6 41 -19 0
-25 -28 -38 -42 -19 -8 12 -9 11 -5 -1 5 -20 37 -19 51 3 18 28 -24 74 -47 51z"/>
<path d="M463 1990 c0 -25 2 -35 4 -22 2 12 2 32 0 45 -2 12 -4 2 -4 -23z"/>
<path d="M492 2019 c7 -4 23 -6 35 -3 19 5 22 1 26 -30 l4 -36 -1 37 c-1 37
-2 38 -39 39 -24 1 -33 -2 -25 -7z"/>
<path d="M616 2014 c18 -15 18 -15 -8 -11 -24 4 -28 1 -28 -19 0 -13 2 -24 4
-24 2 0 13 -3 23 -6 17 -5 17 -5 1 6 -26 16 -22 30 7 30 14 0 25 4 25 8 0 11
-22 32 -34 32 -5 0 -1 -7 10 -16z"/>
<path d="M697 2023 c-3 -5 5 -8 18 -8 13 0 21 3 18 8 -2 4 -10 7 -18 7 -8 0
-16 -3 -18 -7z"/>
<path d="M802 2016 c7 -8 15 -12 17 -11 5 6 -10 25 -20 25 -5 0 -4 -6 3 -14z"/>
<path d="M882 2016 c7 -8 15 -12 17 -11 5 6 -10 25 -20 25 -5 0 -4 -6 3 -14z"/>
<path d="M963 1990 c0 -25 2 -35 4 -22 2 12 2 32 0 45 -2 12 -4 2 -4 -23z"/>
<path d="M1010 2026 c0 -2 7 -7 16 -10 8 -3 12 -2 9 4 -6 10 -25 14 -25 6z"/>
<path d="M1076 2021 c-3 -5 3 -7 14 -4 11 3 20 0 20 -6 0 -6 -6 -11 -14 -11
-8 0 -17 -4 -20 -9 -4 -5 4 -7 15 -4 16 4 20 2 17 -8 -3 -8 -12 -13 -21 -13
-9 1 -14 -2 -12 -6 3 -5 15 -8 26 -7 17 1 19 7 17 37 -3 34 -28 54 -42 31z"/>
<path d="M1141 1985 l2 -40 6 35 c4 22 12 35 21 35 9 0 17 -13 21 -35 6 -34 6
-34 8 -5 1 39 -10 54 -37 52 -19 -1 -22 -7 -21 -42z"/>
<path d="M1276 2022 c-2 -4 4 -8 14 -8 10 0 16 4 14 8 -3 4 -9 8 -14 8 -5 0
-11 -4 -14 -8z"/>
<path d="M1373 1990 c0 -25 2 -35 4 -22 2 12 2 32 0 45 -2 12 -4 2 -4 -23z"/>
<path d="M1402 2018 c9 -7 19 -26 21 -43 3 -21 4 -18 3 10 -1 31 -5 41 -21 43
-18 4 -19 3 -3 -10z"/>
<path d="M1447 2023 c6 -4 13 -24 16 -43 4 -34 4 -33 3 4 -1 26 -6 41 -16 43
-10 3 -11 2 -3 -4z"/>
<path d="M1506 2021 c-4 -5 3 -7 14 -4 23 6 26 13 6 13 -8 0 -17 -4 -20 -9z"/>
<path d="M1573 1990 c0 -25 2 -35 4 -22 2 12 2 32 0 45 -2 12 -4 2 -4 -23z"/>
<path d="M1637 2023 c6 -4 13 -24 16 -43 4 -34 4 -33 3 4 -1 26 -6 41 -16 43
-10 3 -11 2 -3 -4z"/>
<path d="M1678 2023 c6 -2 18 -2 25 0 6 3 1 5 -13 5 -14 0 -19 -2 -12 -5z"/>
<path d="M1736 2021 c-3 -5 3 -7 14 -4 11 3 20 0 20 -6 0 -6 -6 -11 -14 -11
-8 0 -17 -4 -20 -9 -4 -5 4 -7 15 -4 16 4 20 2 17 -8 -3 -8 -12 -13 -21 -13
-9 1 -14 -2 -12 -6 3 -5 15 -8 26 -7 17 1 19 7 17 37 -3 34 -28 54 -42 31z"/>
<path d="M1867 2023 c6 -4 13 -24 16 -43 4 -34 4 -33 3 4 -1 26 -6 41 -16 43
-10 3 -11 2 -3 -4z"/>
<path d="M1956 2021 c-3 -5 3 -7 14 -4 11 3 20 1 20 -5 0 -5 -9 -12 -21 -15
-22 -6 -24 -38 -1 -43 7 -1 8 0 2 3 -15 7 -12 33 4 33 8 0 17 -10 19 -22 3
-13 4 -5 4 17 -2 28 -7 41 -19 43 -9 2 -19 -1 -22 -7z"/>
<path d="M2057 2023 c6 -4 13 -24 16 -43 4 -34 4 -33 3 4 -1 26 -6 41 -16 43
-10 3 -11 2 -3 -4z"/>
<path d="M2147 2023 c-3 -5 5 -8 18 -8 13 0 21 3 18 8 -2 4 -10 7 -18 7 -8 0
-16 -3 -18 -7z"/>
<path d="M2247 2023 c6 -4 13 -24 16 -43 4 -34 4 -33 3 4 -1 26 -6 41 -16 43
-10 3 -11 2 -3 -4z"/>
<path d="M2333 1990 c0 -25 2 -35 4 -22 2 12 2 32 0 45 -2 12 -4 2 -4 -23z"/>
<path d="M2361 1985 l2 -40 6 35 c4 22 12 35 21 35 9 0 17 -13 21 -35 6 -34 6
-34 8 -5 1 39 -10 54 -37 52 -19 -1 -22 -7 -21 -42z"/>
<path d="M2444 2016 c-9 -24 0 -61 16 -62 9 0 10 1 3 3 -21 7 -15 31 10 36
l22 4 -22 2 c-13 0 -23 6 -23 12 0 6 9 9 20 6 11 -3 18 -1 14 4 -8 14 -34 11
-40 -5z"/>
<path d="M2553 1975 c0 -33 2 -45 4 -27 2 18 2 45 0 60 -2 15 -4 0 -4 -33z"/>
<path d="M2583 2020 c9 -6 17 -20 17 -30 0 -10 -8 -24 -17 -30 -11 -7 -12 -10
-4 -7 24 6 37 35 25 54 -6 9 -17 18 -25 20 -8 3 -7 0 4 -7z"/>
<path d="M2630 2020 c0 -5 7 -7 15 -4 8 4 15 8 15 10 0 2 -7 4 -15 4 -8 0 -15
-4 -15 -10z"/>
<path d="M2681 2016 c-16 -19 -11 -46 11 -60 12 -7 21 -7 28 0 8 8 4 10 -11
10 -12 -1 -24 5 -26 12 -3 7 5 12 22 12 20 0 26 4 23 17 -4 23 -31 28 -47 9z
m39 -6 c0 -5 -9 -10 -21 -10 -11 0 -17 5 -14 10 3 6 13 10 21 10 8 0 14 -4 14
-10z"/>
<path d="M2757 2023 c-10 -10 -8 -33 3 -33 5 0 7 7 3 17 -5 13 -2 15 15 11 12
-4 20 -2 16 3 -6 11 -28 12 -37 2z"/>
<path d="M2824 2016 c-9 -24 0 -61 16 -62 9 0 10 1 3 3 -21 7 -15 31 10 36
l22 4 -22 2 c-13 0 -23 6 -23 12 0 6 9 9 20 6 11 -3 18 -1 14 4 -8 14 -34 11
-40 -5z"/>
<path d="M2927 2023 c6 -4 13 -24 16 -43 4 -34 4 -33 3 4 -1 26 -6 41 -16 43
-10 3 -11 2 -3 -4z"/>
<path d="M2990 2026 c0 -2 7 -7 16 -10 8 -3 12 -2 9 4 -6 10 -25 14 -25 6z"/>
<path d="M3051 2016 c-16 -19 -11 -46 11 -60 12 -7 21 -7 28 0 8 8 4 10 -11
10 -12 -1 -24 5 -26 12 -3 7 5 12 22 12 20 0 26 4 23 17 -4 23 -31 28 -47 9z
m39 -6 c0 -5 -9 -10 -21 -10 -11 0 -17 5 -14 10 3 6 13 10 21 10 8 0 14 -4 14
-10z"/>
<path d="M3220 2026 c0 -2 7 -7 16 -10 8 -3 12 -2 9 4 -6 10 -25 14 -25 6z"/>
<path d="M3286 2021 c-3 -5 3 -7 14 -4 11 3 20 0 20 -6 0 -6 -6 -11 -14 -11
-8 0 -17 -4 -20 -9 -4 -5 4 -7 15 -4 16 4 20 2 17 -8 -3 -8 -12 -13 -21 -13
-9 1 -14 -2 -12 -6 3 -5 15 -8 26 -7 17 1 19 7 17 37 -3 34 -28 54 -42 31z"/>
<path d="M3348 2023 c6 -2 18 -2 25 0 6 3 1 5 -13 5 -14 0 -19 -2 -12 -5z"/>
<path d="M3434 2019 c-3 -6 -1 -16 5 -22 9 -9 10 -7 5 7 -6 16 -4 18 14 14 12
-4 20 -2 16 3 -7 12 -31 11 -40 -2z"/>
<path d="M3537 2023 c6 -4 13 -24 16 -43 4 -34 4 -33 3 4 -1 26 -6 41 -16 43
-10 3 -11 2 -3 -4z"/>
<path d="M3613 2020 c9 -6 17 -20 17 -30 0 -10 -8 -24 -17 -30 -11 -7 -12 -10
-4 -7 24 6 37 35 25 54 -6 9 -17 18 -25 20 -8 3 -7 0 4 -7z"/>
<path d="M3696 2014 c-4 -9 -4 -19 -1 -22 2 -3 7 3 11 12 4 9 4 19 1 22 -2 3
-7 -3 -11 -12z"/>
<path d="M3777 2023 c-3 -5 5 -8 18 -8 13 0 21 3 18 8 -2 4 -10 7 -18 7 -8 0
-16 -3 -18 -7z"/>
<path d="M3846 2021 c-3 -5 3 -7 14 -4 11 3 20 1 20 -5 0 -5 -9 -12 -21 -15
-22 -6 -24 -38 -1 -43 7 -1 8 0 2 3 -15 7 -12 33 4 33 8 0 17 -10 19 -22 3
-13 4 -5 4 17 -2 28 -7 41 -19 43 -9 2 -19 -1 -22 -7z"/>
<path d="M3927 2023 c-10 -10 -8 -33 3 -33 5 0 7 7 3 17 -5 13 -2 15 15 11 12
-4 20 -2 16 3 -6 11 -28 12 -37 2z"/>
<path d="M3994 2016 c-9 -24 0 -61 16 -62 9 0 10 1 3 3 -21 7 -15 31 10 36
l22 4 -22 2 c-13 0 -23 6 -23 12 0 6 9 9 20 6 11 -3 18 -1 14 4 -8 14 -34 11
-40 -5z"/>
<path d="M4064 2019 c-3 -6 -1 -16 5 -22 9 -9 10 -7 5 7 -6 16 -4 18 14 14 12
-4 20 -2 16 3 -7 12 -31 11 -40 -2z"/>
<path d="M314 2005 c11 -8 23 -15 28 -15 4 0 8 -7 8 -15 0 -18 -31 -20 -50 -2
-12 10 -12 9 0 -6 16 -22 54 -19 58 5 2 11 -8 22 -30 33 -28 14 -30 14 -14 0z"/>
<path d="M992 1990 c0 -19 2 -27 5 -17 2 9 2 25 0 35 -3 9 -5 1 -5 -18z"/>
<path d="M2972 1990 c0 -19 2 -27 5 -17 2 9 2 25 0 35 -3 9 -5 1 -5 -18z"/>
<path d="M3661 2004 c0 -11 3 -14 6 -6 3 7 2 16 -1 19 -3 4 -6 -2 -5 -13z"/>
<path d="M1520 1997 c-34 -17 -32 -42 3 -43 23 -1 27 3 27 27 0 16 -1 29 -2
29 -2 0 -14 -6 -28 -13z m20 -17 c0 -12 -28 -25 -36 -17 -9 9 6 27 22 27 8 0
14 -5 14 -10z"/>
<path d="M3582 1990 c0 -14 2 -19 5 -12 2 6 2 18 0 25 -3 6 -5 1 -5 -13z"/>
<path d="M694 1985 c-7 -17 3 -35 19 -34 9 0 9 2 0 6 -21 8 -15 31 10 36 l22
4 -23 2 c-12 0 -25 -6 -28 -14z"/>
<path d="M3730 1991 c0 -7 -4 -10 -9 -7 -5 4 -7 -4 -3 -16 l5 -22 9 24 c5 12
6 25 3 28 -3 3 -5 0 -5 -7z"/>
<path d="M1305 1978 c4 -11 0 -18 -12 -21 -15 -4 -16 -5 -1 -6 22 -1 33 18 19
32 -9 9 -11 8 -6 -5z"/>
<path d="M2786 1976 c6 -16 4 -18 -14 -14 -12 4 -20 2 -16 -3 7 -12 31 -11 40
2 3 6 1 16 -5 22 -9 9 -10 7 -5 -7z"/>
<path d="M3467 1973 c5 -13 2 -15 -17 -10 -16 4 -20 3 -12 -5 14 -14 42 -3 42
17 0 8 -4 15 -10 15 -5 0 -7 -7 -3 -17z"/>
<path d="M3956 1976 c6 -16 4 -18 -14 -14 -12 4 -20 2 -16 -3 7 -12 31 -11 40
2 3 6 1 16 -5 22 -9 9 -10 7 -5 -7z"/>
<path d="M4097 1973 c5 -13 2 -15 -17 -10 -16 4 -20 3 -12 -5 14 -14 42 -3 42
17 0 8 -4 15 -10 15 -5 0 -7 -7 -3 -17z"/>
<path d="M3670 1970 c0 -5 5 -10 10 -10 6 0 10 5 10 10 0 6 -4 10 -10 10 -5 0
-10 -4 -10 -10z"/>
<path d="M800 1960 c-9 -6 -10 -10 -3 -10 6 0 15 5 18 10 8 12 4 12 -15 0z"/>
<path d="M880 1960 c-9 -6 -10 -10 -3 -10 6 0 15 5 18 10 8 12 4 12 -15 0z"/>
<path d="M1020 1960 c-9 -6 -10 -10 -3 -10 6 0 15 5 18 10 8 12 4 12 -15 0z"/>
<path d="M1690 1960 c0 -5 5 -10 11 -10 5 0 7 5 4 10 -3 6 -8 10 -11 10 -2 0
-4 -4 -4 -10z"/>
<path d="M2147 1958 c2 -5 10 -8 18 -8 8 0 16 3 18 8 3 4 -5 7 -18 7 -13 0
-21 -3 -18 -7z"/>
<path d="M3000 1960 c-9 -6 -10 -10 -3 -10 6 0 15 5 18 10 8 12 4 12 -15 0z"/>
<path d="M3360 1960 c0 -5 5 -10 11 -10 5 0 7 5 4 10 -3 6 -8 10 -11 10 -2 0
-4 -4 -4 -10z"/>
<path d="M3777 1958 c2 -5 10 -8 18 -8 8 0 16 3 18 8 3 4 -5 7 -18 7 -13 0
-21 -3 -18 -7z"/>
<path d="M343 1795 c0 -46 1 -52 6 -25 4 22 12 35 21 35 9 0 17 -13 21 -35 6
-34 6 -34 8 -5 1 38 -12 60 -32 52 -11 -4 -17 1 -20 16 -2 12 -4 -5 -4 -38z"/>
<path d="M613 1795 c0 -33 2 -45 4 -27 2 18 2 45 0 60 -2 15 -4 0 -4 -33z"/>
<path d="M1313 1795 c0 -33 2 -45 4 -27 2 18 2 45 0 60 -2 15 -4 0 -4 -33z"/>
<path d="M1533 1795 c0 -33 2 -45 4 -27 2 18 2 45 0 60 -2 15 -4 0 -4 -33z"/>
<path d="M2732 1833 c-4 -10 -5 -36 -1 -58 l6 -40 3 40 c1 22 2 44 1 49 -1 5
4 13 11 17 9 6 10 9 1 9 -7 0 -16 -8 -21 -17z"/>
<path d="M3863 1795 c0 -46 1 -52 6 -25 4 22 12 35 21 35 9 0 17 -13 21 -35 6
-34 6 -34 8 -5 1 38 -12 60 -32 52 -11 -4 -17 1 -20 16 -2 12 -4 -5 -4 -38z"/>
<path d="M299 1829 c-2 -29 3 -74 9 -81 4 -4 6 13 5 38 -1 43 -12 74 -14 43z"/>
<path d="M1409 1829 c-2 -29 3 -74 9 -81 4 -4 6 13 5 38 -1 43 -12 74 -14 43z"/>
<path d="M1719 1829 c-2 -29 3 -74 9 -81 4 -4 6 13 5 38 -1 43 -12 74 -14 43z"/>
<path d="M2329 1829 c-2 -29 3 -74 9 -81 4 -4 6 13 5 38 -1 43 -12 74 -14 43z"/>
<path d="M2509 1829 c-2 -29 3 -74 9 -81 4 -4 6 13 5 38 -1 43 -12 74 -14 43z"/>
<path d="M2693 1790 c0 -30 2 -43 4 -27 2 15 2 39 0 55 -2 15 -4 2 -4 -28z"/>
<path d="M424 1806 c-9 -24 0 -61 16 -62 9 0 10 1 3 3 -21 7 -15 31 10 36 l22
4 -22 2 c-13 0 -23 6 -23 12 0 6 9 9 20 6 11 -3 18 -1 14 4 -8 14 -34 11 -40
-5z"/>
<path d="M530 1810 c0 -5 7 -7 15 -4 8 4 15 8 15 10 0 2 -7 4 -15 4 -8 0 -15
-4 -15 -10z"/>
<path d="M643 1810 c9 -6 17 -20 17 -30 0 -10 -8 -24 -17 -30 -11 -7 -12 -10
-4 -7 24 6 37 35 25 54 -6 9 -17 18 -25 20 -8 3 -7 0 4 -7z"/>
<path d="M696 1811 c-3 -5 3 -7 14 -4 11 3 20 1 20 -5 0 -5 -9 -12 -21 -15
-22 -6 -24 -38 -1 -43 7 -1 8 0 2 3 -15 7 -12 33 4 33 8 0 17 -10 19 -22 3
-13 4 -5 4 17 -2 28 -7 41 -19 43 -9 2 -19 -1 -22 -7z"/>
<path d="M770 1805 c-15 -18 -10 -45 12 -59 12 -7 21 -7 28 0 8 8 4 10 -12 10
-18 -1 -23 4 -23 24 0 19 5 25 22 24 12 0 20 3 17 8 -8 13 -30 9 -44 -7z"/>
<path d="M863 1801 c-24 -20 -30 -33 -14 -28 5 1 17 -7 26 -18 16 -19 16 -19
2 6 -14 24 -14 28 1 43 22 22 12 20 -15 -3z"/>
<path d="M915 1810 c-3 -6 1 -7 9 -4 18 7 21 14 7 14 -6 0 -13 -4 -16 -10z"/>
<path d="M950 1769 c0 -48 -2 -51 -21 -46 -16 4 -19 3 -11 -5 23 -23 42 0 42
52 0 27 -2 50 -5 50 -3 0 -5 -23 -5 -51z"/>
<path d="M990 1810 c0 -5 7 -7 15 -4 8 4 15 8 15 10 0 2 -7 4 -15 4 -8 0 -15
-4 -15 -10z"/>
<path d="M1063 1810 c9 -6 17 -20 17 -30 0 -10 -8 -24 -17 -30 -11 -7 -12 -10
-4 -7 8 2 19 11 25 20 12 19 -1 48 -25 54 -8 3 -7 0 4 -7z"/>
<path d="M1114 1780 c1 -30 5 -35 29 -38 26 -3 27 -2 26 40 -2 43 -2 43 -8 8
-8 -48 -38 -54 -44 -8 l-4 33 1 -35z"/>
<path d="M1193 1780 c0 -25 2 -35 4 -22 2 12 2 32 0 45 -2 12 -4 2 -4 -23z"/>
<path d="M1210 1816 c0 -2 7 -7 16 -10 8 -3 12 -2 9 4 -6 10 -25 14 -25 6z"/>
<path d="M1275 1810 c-3 -6 1 -7 9 -4 18 7 21 14 7 14 -6 0 -13 -4 -16 -10z"/>
<path d="M1457 1813 c-3 -5 5 -8 18 -8 13 0 21 3 18 8 -2 4 -10 7 -18 7 -8 0
-16 -3 -18 -7z"/>
<path d="M1571 1806 c-16 -19 -11 -46 11 -60 12 -7 21 -7 28 0 8 8 4 10 -11
10 -12 -1 -24 5 -26 12 -3 7 5 12 22 12 20 0 26 4 23 17 -4 23 -31 28 -47 9z
m39 -6 c0 -5 -9 -10 -21 -10 -11 0 -17 5 -14 10 3 6 13 10 21 10 8 0 14 -4 14
-10z"/>
<path d="M1667 1813 c6 -4 13 -24 16 -43 4 -34 4 -33 3 4 -1 26 -6 41 -16 43
-10 3 -11 2 -3 -4z"/>
<path d="M1764 1809 c-3 -6 -1 -16 5 -22 9 -9 10 -7 5 7 -6 16 -4 18 14 14 12
-4 20 -2 16 3 -7 12 -31 11 -40 -2z"/>
<path d="M1902 1808 c-16 -16 -15 -43 3 -58 17 -14 45 -7 45 12 0 10 -3 9 -9
-1 -12 -19 -41 -6 -41 19 0 25 28 38 42 19 8 -12 9 -11 5 1 -5 19 -29 24 -45
8z"/>
<path d="M1985 1810 c-3 -6 1 -7 9 -4 18 7 21 14 7 14 -6 0 -13 -4 -16 -10z"/>
<path d="M2067 1813 c-3 -5 5 -8 18 -8 13 0 21 3 18 8 -2 4 -10 7 -18 7 -8 0
-16 -3 -18 -7z"/>
<path d="M2133 1780 c0 -25 2 -35 4 -22 2 12 2 32 0 45 -2 12 -4 2 -4 -23z"/>
<path d="M2186 1811 c-3 -5 3 -7 14 -4 11 3 20 0 20 -6 0 -6 -11 -11 -25 -11
-14 0 -25 -4 -25 -8 0 -5 14 -7 31 -4 21 3 29 9 27 21 -4 18 -33 27 -42 12z"/>
<path d="M2256 1811 c-3 -5 3 -7 14 -4 11 3 20 1 20 -5 0 -5 -9 -12 -21 -15
-22 -6 -24 -38 -1 -43 7 -1 8 0 2 3 -15 7 -12 33 4 33 8 0 17 -10 19 -22 3
-13 4 -5 4 17 -2 28 -7 41 -19 43 -9 2 -19 -1 -22 -7z"/>
<path d="M2373 1780 c0 -25 2 -35 4 -22 2 12 2 32 0 45 -2 12 -4 2 -4 -23z"/>
<path d="M2401 1819 c-2 -14 22 -69 30 -69 5 0 9 5 9 10 0 6 -4 10 -8 10 -5 0
-13 12 -19 28 -6 15 -11 24 -12 21z"/>
<path d="M2877 1814 c-4 -4 -7 -12 -7 -18 0 -6 4 -5 9 3 12 19 41 6 41 -19 0
-25 -28 -38 -42 -19 -8 12 -9 11 -5 -1 5 -20 37 -19 51 3 18 28 -24 74 -47 51z"/>
<path d="M2954 1780 c1 -28 5 -36 24 -38 12 -2 22 1 22 6 0 6 -9 8 -19 5 -16
-4 -20 1 -24 29 l-4 33 1 -35z"/>
<path d="M3063 1780 c0 -25 2 -35 4 -22 2 12 2 32 0 45 -2 12 -4 2 -4 -23z"/>
<path d="M3092 1808 c9 -7 19 -26 21 -43 3 -21 4 -18 3 10 -1 31 -5 41 -21 43
-18 4 -19 3 -3 -10z"/>
<path d="M3137 1813 c6 -4 13 -24 16 -43 4 -34 4 -33 3 4 -1 26 -6 41 -16 43
-10 3 -11 2 -3 -4z"/>
<path d="M3196 1811 c-4 -5 3 -7 14 -4 23 6 26 13 6 13 -8 0 -17 -4 -20 -9z"/>
<path d="M3263 1780 c0 -25 2 -35 4 -22 2 12 2 32 0 45 -2 12 -4 2 -4 -23z"/>
<path d="M3327 1813 c6 -4 13 -24 16 -43 4 -34 4 -33 3 4 -1 26 -6 41 -16 43
-10 3 -11 2 -3 -4z"/>
<path d="M3368 1813 c6 -2 18 -2 25 0 6 3 1 5 -13 5 -14 0 -19 -2 -12 -5z"/>
<path d="M3426 1811 c-3 -5 3 -7 14 -4 11 3 20 0 20 -6 0 -6 -6 -11 -14 -11
-8 0 -17 -4 -20 -9 -4 -5 4 -7 15 -4 16 4 20 2 17 -8 -3 -8 -12 -13 -21 -13
-9 1 -14 -2 -12 -6 3 -5 15 -8 26 -7 17 1 19 7 17 37 -3 34 -28 54 -42 31z"/>
<path d="M3557 1813 c6 -4 13 -24 16 -43 4 -34 4 -33 3 4 -1 26 -6 41 -16 43
-10 3 -11 2 -3 -4z"/>
<path d="M3644 1809 c-3 -6 -1 -16 5 -22 9 -9 10 -7 5 7 -6 16 -4 18 14 14 12
-4 20 -2 16 3 -7 12 -31 11 -40 -2z"/>
<path d="M3714 1780 c1 -30 5 -35 29 -38 26 -3 27 -2 26 40 -2 43 -2 43 -8 8
-8 -48 -38 -54 -44 -8 l-4 33 1 -35z"/>
<path d="M3795 1809 c-4 -6 -4 -13 -1 -16 3 -4 6 -1 6 6 0 8 8 11 20 8 11 -3
18 -1 14 4 -7 12 -31 11 -39 -2z"/>
<path d="M3986 1811 c-4 -5 3 -7 14 -4 23 6 26 13 6 13 -8 0 -17 -4 -20 -9z"/>
<path d="M1032 1780 c0 -14 2 -19 5 -12 2 6 2 18 0 25 -3 6 -5 1 -5 -13z"/>
<path d="M3210 1787 c-34 -17 -32 -42 3 -43 23 -1 27 3 27 27 0 16 -1 29 -2
29 -2 0 -14 -6 -28 -13z m20 -17 c0 -12 -28 -25 -36 -17 -9 9 6 27 22 27 8 0
14 -5 14 -10z"/>
<path d="M4000 1787 c-34 -17 -32 -42 3 -43 23 -1 27 3 27 27 0 16 -1 29 -2
29 -2 0 -14 -6 -28 -13z m20 -17 c0 -12 -28 -25 -36 -17 -9 9 6 27 22 27 8 0
14 -5 14 -10z"/>
<path d="M1454 1775 c-7 -17 3 -35 19 -34 9 0 9 2 0 6 -21 8 -15 31 10 36 l22
4 -23 2 c-12 0 -25 -6 -28 -14z"/>
<path d="M2567 1772 c1 -8 3 -21 4 -30 0 -14 2 -13 9 3 12 27 12 37 1 31 -5
-4 -11 -3 -14 1 -2 5 -2 2 0 -5z"/>
<path d="M2817 1772 c1 -8 3 -21 4 -30 0 -14 2 -13 9 3 12 27 12 37 1 31 -5
-4 -11 -3 -14 1 -2 5 -2 2 0 -5z"/>
<path d="M1797 1763 c5 -13 2 -15 -17 -10 -16 4 -20 3 -12 -5 14 -14 42 -3 42
17 0 8 -4 15 -10 15 -5 0 -7 -7 -3 -17z"/>
<path d="M3677 1763 c5 -13 2 -15 -17 -10 -16 4 -20 3 -12 -5 14 -14 42 -3 42
17 0 8 -4 15 -10 15 -5 0 -7 -7 -3 -17z"/>
<path d="M3790 1762 c0 -18 29 -27 43 -13 9 9 8 11 -7 5 -11 -4 -21 -2 -27 7
-6 10 -9 11 -9 1z"/>
<path d="M917 1749 c7 -7 15 -10 18 -7 3 3 -2 9 -12 12 -14 6 -15 5 -6 -5z"/>
<path d="M1277 1749 c7 -7 15 -10 18 -7 3 3 -2 9 -12 12 -14 6 -15 5 -6 -5z"/>
<path d="M2067 1748 c2 -5 10 -8 18 -8 8 0 16 3 18 8 3 4 -5 7 -18 7 -13 0
-21 -3 -18 -7z"/>
<path d="M2187 1748 c2 -5 10 -8 18 -8 8 0 16 3 18 8 3 4 -5 7 -18 7 -13 0
-21 -3 -18 -7z"/>
<path d="M3380 1750 c0 -5 5 -10 11 -10 5 0 7 5 4 10 -3 6 -8 10 -11 10 -2 0
-4 -4 -4 -10z"/>
<path d="M1302 1623 c-4 -10 -5 -36 -1 -58 l6 -40 3 40 c1 22 2 44 1 49 -1 5
4 13 11 17 9 6 10 9 1 9 -7 0 -16 -8 -21 -17z"/>
<path d="M2133 1585 c0 -33 2 -45 4 -27 2 18 2 45 0 60 -2 15 -4 0 -4 -33z"/>
<path d="M2603 1585 c0 -46 1 -52 6 -25 4 22 12 35 21 35 9 0 17 -13 21 -35 6
-34 6 -34 8 -5 1 38 -12 60 -32 52 -11 -4 -17 1 -20 16 -2 12 -4 -5 -4 -38z"/>
<path d="M1568 1617 c-2 -7 -1 -25 3 -42 7 -30 7 -30 8 -3 0 14 5 28 10 30 5
2 3 8 -4 15 -10 9 -14 9 -17 0z"/>
<path d="M2372 1586 c-2 -46 -3 -48 -27 -44 -13 3 -22 1 -19 -3 8 -14 44 -10
50 5 3 8 4 31 1 52 -3 36 -4 35 -5 -10z"/>
<path d="M2411 1578 c1 -29 4 -43 6 -30 6 28 27 29 39 1 8 -17 10 -12 9 27 0
46 -2 49 -27 52 -28 3 -28 3 -27 -50z m49 22 c0 -13 -7 -20 -20 -20 -13 0 -20
7 -20 20 0 13 7 20 20 20 13 0 20 -7 20 -20z"/>
<path d="M2492 1583 l-2 -53 33 1 c29 2 29 2 5 6 -24 4 -27 9 -31 51 l-3 47
-2 -52z"/>
<path d="M307 1603 c-10 -10 -8 -33 3 -33 5 0 7 7 3 17 -5 13 -2 15 15 11 12
-4 20 -2 16 3 -6 11 -28 12 -37 2z"/>
<path d="M373 1570 c0 -25 2 -35 4 -22 2 12 2 32 0 45 -2 12 -4 2 -4 -23z"/>
<path d="M398 1603 c6 -2 18 -2 25 0 6 3 1 5 -13 5 -14 0 -19 -2 -12 -5z"/>
<path d="M454 1596 c-9 -24 0 -61 16 -62 9 0 10 1 3 3 -21 7 -15 31 10 36 l22
4 -22 2 c-13 0 -23 6 -23 12 0 6 9 9 20 6 11 -3 18 -1 14 4 -8 14 -34 11 -40
-5z"/>
<path d="M595 1601 c-4 -7 0 -8 10 -4 10 3 21 0 27 -8 8 -12 9 -11 5 1 -5 18
-33 25 -42 11z"/>
<path d="M706 1601 c-3 -5 3 -7 14 -4 11 3 20 0 20 -6 0 -6 -11 -11 -25 -11
-14 0 -25 -4 -25 -8 0 -5 14 -7 31 -4 21 3 29 9 27 21 -4 18 -33 27 -42 12z"/>
<path d="M777 1603 c-3 -5 5 -8 18 -8 13 0 21 3 18 8 -2 4 -10 7 -18 7 -8 0
-16 -3 -18 -7z"/>
<path d="M857 1603 c-10 -10 -8 -33 3 -33 5 0 7 7 3 17 -5 13 -2 15 15 11 12
-4 20 -2 16 3 -6 11 -28 12 -37 2z"/>
<path d="M924 1596 c-9 -24 0 -61 16 -62 9 0 10 1 3 3 -21 7 -15 31 10 36 l22
4 -22 2 c-13 0 -23 6 -23 12 0 6 9 9 20 6 11 -3 18 -1 14 4 -8 14 -34 11 -40
-5z"/>
<path d="M1038 1603 c7 -3 16 -2 19 1 4 3 -2 6 -13 5 -11 0 -14 -3 -6 -6z"/>
<path d="M1086 1601 c-3 -5 3 -7 14 -4 11 3 20 0 20 -6 0 -6 -11 -11 -25 -11
-14 0 -25 -4 -25 -8 0 -5 14 -7 31 -4 21 3 29 9 27 21 -4 18 -33 27 -42 12z"/>
<path d="M1154 1596 c-9 -24 0 -61 16 -62 9 0 10 1 3 3 -21 7 -15 31 10 36
l22 4 -22 2 c-13 0 -23 6 -23 12 0 6 9 9 20 6 11 -3 18 -1 14 4 -8 14 -34 11
-40 -5z"/>
<path d="M1341 1566 c2 -34 3 -36 6 -11 3 17 9 35 14 41 5 7 3 11 -6 11 -11 0
-15 -11 -14 -41z"/>
<path d="M1396 1601 c-3 -5 3 -7 14 -4 11 3 20 0 20 -6 0 -6 -11 -11 -25 -11
-14 0 -25 -4 -25 -8 0 -5 14 -7 31 -4 21 3 29 9 27 21 -4 18 -33 27 -42 12z"/>
<path d="M1496 1594 c18 -15 18 -15 -8 -11 -24 4 -28 1 -28 -19 0 -13 2 -24 4
-24 2 0 13 -3 23 -6 17 -5 17 -5 1 6 -26 16 -22 30 7 30 14 0 25 4 25 8 0 11
-22 32 -34 32 -5 0 -1 -7 10 -16z"/>
<path d="M1622 1598 c-16 -16 -15 -43 3 -58 17 -14 45 -7 45 12 0 10 -3 9 -9
-1 -12 -19 -41 -6 -41 19 0 25 28 38 42 19 8 -12 9 -11 5 1 -5 19 -29 24 -45
8z"/>
<path d="M1734 1596 c-9 -24 0 -61 16 -62 9 0 10 1 3 3 -21 7 -15 31 10 36
l22 4 -22 2 c-13 0 -23 6 -23 12 0 6 9 9 20 6 11 -3 18 -1 14 4 -8 14 -34 11
-40 -5z"/>
<path d="M1837 1603 c6 -4 13 -24 16 -43 4 -34 4 -33 3 4 -1 26 -6 41 -16 43
-10 3 -11 2 -3 -4z"/>
<path d="M1878 1603 c6 -2 18 -2 25 0 6 3 1 5 -13 5 -14 0 -19 -2 -12 -5z"/>
<path d="M1936 1601 c-3 -5 3 -7 14 -4 11 3 20 0 20 -6 0 -6 -11 -11 -25 -11
-14 0 -25 -4 -25 -8 0 -5 14 -7 31 -4 21 3 29 9 27 21 -4 18 -33 27 -42 12z"/>
<path d="M2001 1566 c2 -34 3 -36 6 -11 3 17 9 35 14 41 5 7 3 11 -6 11 -11 0
-15 -11 -14 -41z"/>
<path d="M2078 1603 c6 -2 18 -2 25 0 6 3 1 5 -13 5 -14 0 -19 -2 -12 -5z"/>
<path d="M2150 1606 c0 -2 7 -7 16 -10 8 -3 12 -2 9 4 -6 10 -25 14 -25 6z"/>
<path d="M2211 1596 c-16 -19 -11 -46 11 -60 12 -7 21 -7 28 0 8 8 4 10 -11
10 -12 -1 -24 5 -26 12 -3 7 5 12 22 12 20 0 26 4 23 17 -4 23 -31 28 -47 9z
m39 -6 c0 -5 -9 -10 -21 -10 -11 0 -17 5 -14 10 3 6 13 10 21 10 8 0 14 -4 14
-10z"/>
<path d="M2684 1596 c-9 -24 0 -61 16 -62 9 0 10 1 3 3 -21 7 -15 31 10 36
l22 4 -22 2 c-13 0 -23 6 -23 12 0 6 9 9 20 6 11 -3 18 -1 14 4 -8 14 -34 11
-40 -5z"/>
<path d="M2751 1566 c2 -34 3 -36 6 -11 3 17 9 35 14 41 5 7 3 11 -6 11 -11 0
-15 -11 -14 -41z"/>
<path d="M2804 1596 c-9 -24 0 -61 16 -62 9 0 10 1 3 3 -21 7 -15 31 10 36
l22 4 -22 2 c-13 0 -23 6 -23 12 0 6 9 9 20 6 11 -3 18 -1 14 4 -8 14 -34 11
-40 -5z"/>
<path d="M774 1565 c-7 -17 3 -35 19 -34 9 0 9 2 0 6 -21 8 -15 31 10 36 l22
4 -23 2 c-12 0 -25 -6 -28 -14z"/>
<path d="M336 1556 c6 -16 4 -18 -14 -14 -12 4 -20 2 -16 -3 7 -12 31 -11 40
2 3 6 1 16 -5 22 -9 9 -10 7 -5 -7z"/>
<path d="M886 1556 c6 -16 4 -18 -14 -14 -12 4 -20 2 -16 -3 7 -12 31 -11 40
2 3 6 1 16 -5 22 -9 9 -10 7 -5 -7z"/>
<path d="M630 1551 c0 -8 -8 -11 -20 -8 -11 3 -18 1 -14 -4 3 -5 11 -9 19 -9
16 0 30 18 21 27 -3 4 -6 1 -6 -6z"/>
<path d="M410 1540 c0 -5 5 -10 11 -10 5 0 7 5 4 10 -3 6 -8 10 -11 10 -2 0
-4 -4 -4 -10z"/>
<path d="M707 1538 c2 -5 10 -8 18 -8 8 0 16 3 18 8 3 4 -5 7 -18 7 -13 0 -21
-3 -18 -7z"/>
<path d="M1087 1538 c2 -5 10 -8 18 -8 8 0 16 3 18 8 3 4 -5 7 -18 7 -13 0
-21 -3 -18 -7z"/>
<path d="M1397 1538 c2 -5 10 -8 18 -8 8 0 16 3 18 8 3 4 -5 7 -18 7 -13 0
-21 -3 -18 -7z"/>
<path d="M1890 1540 c0 -5 5 -10 11 -10 5 0 7 5 4 10 -3 6 -8 10 -11 10 -2 0
-4 -4 -4 -10z"/>
<path d="M1937 1538 c2 -5 10 -8 18 -8 8 0 16 3 18 8 3 4 -5 7 -18 7 -13 0
-21 -3 -18 -7z"/>
<path d="M2090 1540 c0 -5 5 -10 11 -10 5 0 7 5 4 10 -3 6 -8 10 -11 10 -2 0
-4 -4 -4 -10z"/>
<path d="M422 1210 c1 -54 2 -58 7 -25 4 26 11 40 21 40 10 0 17 -14 21 -40
l7 -40 -2 45 c-1 38 -4 45 -21 45 -11 0 -23 9 -27 20 -3 11 -6 -9 -6 -45z"/>
<path d="M1122 1210 c1 -54 2 -58 7 -25 4 26 11 40 21 40 10 0 17 -14 21 -40
l7 -40 -2 45 c-1 38 -4 45 -21 45 -11 0 -23 9 -27 20 -3 11 -6 -9 -6 -45z"/>
<path d="M1290 1210 c0 -35 3 -60 7 -56 8 8 7 106 -1 114 -4 3 -6 -23 -6 -58z"/>
<path d="M1822 1258 c-7 -7 -12 -28 -12 -48 0 -39 15 -60 40 -59 9 0 6 4 -8
10 -20 7 -23 15 -20 51 3 49 29 63 54 31 14 -17 14 -16 4 5 -12 24 -39 29 -58
10z"/>
<path d="M2460 1210 c0 -61 0 -61 27 -58 17 2 33 13 43 31 13 24 13 30 0 55
-10 17 -26 28 -43 30 -27 3 -27 3 -27 -58z m62 25 c15 -33 -3 -75 -32 -75 -17
0 -20 6 -20 50 0 44 3 50 20 50 12 0 25 -10 32 -25z"/>
<path d="M3060 1251 c0 -14 -5 -18 -19 -14 -27 7 -47 -31 -32 -63 7 -17 18
-23 36 -22 24 2 25 6 25 60 0 32 -2 58 -5 58 -3 0 -5 -9 -5 -19z m-5 -56 c0
-33 -28 -47 -39 -19 -10 25 3 56 22 52 11 -2 17 -13 17 -33z"/>
<path d="M508 1248 c-8 -22 7 -91 20 -94 7 -1 8 0 2 3 -12 6 -13 70 -1 75 5 2
3 8 -4 15 -10 9 -15 9 -17 1z"/>
<path d="M559 1248 c-4 -45 9 -98 23 -98 9 0 9 3 0 12 -14 14 -16 65 -3 70 5
2 3 9 -5 16 -11 10 -14 10 -15 0z"/>
<path d="M1068 1248 c-8 -22 7 -91 20 -94 7 -1 8 0 2 3 -12 6 -13 70 -1 75 5
2 3 8 -4 15 -10 9 -15 9 -17 1z"/>
<path d="M611 1175 c1 -33 4 -50 6 -38 3 14 9 20 19 16 20 -7 44 15 44 42 0
28 -19 45 -48 42 -20 -1 -22 -6 -21 -62z m54 20 c0 -23 -4 -30 -20 -30 -21 0
-31 25 -21 51 11 28 41 12 41 -21z"/>
<path d="M713 1233 c-22 -8 -14 -32 12 -39 14 -3 25 -12 25 -20 0 -16 -36 -19
-43 -4 -3 6 -4 5 -3 -2 2 -7 13 -13 27 -13 34 0 38 32 4 45 -30 11 -24 34 7
24 14 -4 18 -2 14 5 -7 11 -22 13 -43 4z"/>
<path d="M939 1219 c-16 -31 4 -73 32 -66 13 3 19 1 16 -6 -2 -7 -14 -12 -26
-11 -15 0 -19 -2 -11 -10 21 -21 45 8 48 60 3 47 1 50 -22 52 -17 1 -29 -5
-37 -19z m46 -24 c0 -33 -28 -47 -39 -19 -10 25 3 56 22 52 11 -2 17 -13 17
-33z"/>
<path d="M1033 1195 c0 -27 2 -38 4 -22 2 15 2 37 0 50 -2 12 -4 0 -4 -28z"/>
<path d="M1214 1198 c1 -40 3 -43 29 -44 26 -1 27 1 26 45 l-2 46 -6 -40 c-9
-57 -38 -61 -44 -6 l-4 41 1 -42z"/>
<path d="M1333 1229 c9 -5 17 -21 17 -34 0 -13 -8 -29 -17 -34 -10 -6 -13 -11
-7 -11 17 0 34 22 34 45 0 23 -17 45 -34 45 -6 0 -3 -5 7 -11z"/>
<path d="M1435 1230 c-3 -6 1 -7 10 -4 8 4 23 0 33 -7 15 -13 16 -12 3 4 -15
19 -36 22 -46 7z"/>
<path d="M1523 1233 c-7 -2 -13 -9 -13 -14 0 -5 9 -4 20 3 17 11 22 10 30 -2
5 -8 10 -19 10 -25 0 -5 -5 -17 -10 -25 -8 -12 -13 -13 -30 -2 -11 7 -20 8
-20 3 0 -9 23 -21 40 -21 19 0 32 42 21 66 -10 23 -23 28 -48 17z"/>
<path d="M1601 1192 l2 -47 6 40 c4 27 12 41 24 43 14 3 17 -4 18 -40 l2 -43
6 40 c8 48 8 48 -29 51 -29 2 -30 1 -29 -44z"/>
<path d="M1680 1236 c0 -2 7 -7 16 -10 8 -3 12 -2 9 4 -6 10 -25 14 -25 6z"/>
<path d="M1920 1226 c-15 -19 -9 -56 12 -69 34 -22 66 41 36 71 -16 16 -33 15
-48 -2z m45 -31 c0 -23 -4 -30 -20 -30 -21 0 -31 25 -21 51 11 28 41 12 41
-21z"/>
<path d="M2001 1192 l2 -47 6 40 c4 27 12 41 24 43 14 3 17 -4 18 -40 l2 -43
6 40 c8 48 8 48 -29 51 -29 2 -30 1 -29 -44z"/>
<path d="M2080 1236 c0 -2 7 -7 16 -10 8 -3 12 -2 9 4 -6 10 -25 14 -25 6z"/>
<path d="M2140 1195 c0 -27 2 -46 4 -44 8 8 10 78 3 85 -4 4 -7 -14 -7 -41z"/>
<path d="M2206 1231 c-3 -5 3 -7 14 -4 14 4 20 0 20 -10 0 -9 -8 -18 -17 -20
-17 -4 -17 -5 0 -6 19 -1 23 -16 5 -27 -6 -4 -18 2 -25 12 -14 19 -15 19 -11
-1 2 -14 12 -20 31 -21 27 -1 28 1 25 40 -2 29 -8 42 -20 44 -9 2 -19 -1 -22
-7z"/>
<path d="M2292 1228 c-24 -24 -8 -79 23 -78 5 0 2 5 -7 11 -10 5 -18 21 -18
34 0 13 8 29 18 34 9 6 12 11 7 11 -6 0 -16 -5 -23 -12z"/>
<path d="M2381 1226 c-26 -31 11 -98 39 -70 8 8 4 10 -11 10 -36 -2 -34 22 3
27 l33 4 -32 1 c-35 2 -44 18 -17 29 9 3 20 0 26 -8 8 -12 9 -11 5 1 -5 21
-31 24 -46 6z"/>
<path d="M2563 1195 c0 -27 2 -38 4 -22 2 15 2 37 0 50 -2 12 -4 0 -4 -28z"/>
<path d="M2607 1233 c-4 -3 -7 -11 -7 -17 0 -6 4 -5 9 3 9 15 41 8 41 -8 0 -5
-10 -11 -22 -13 -25 -3 -33 -39 -10 -44 7 -1 8 0 2 3 -18 9 -10 33 11 33 14 0
19 -5 16 -15 -4 -8 -2 -17 3 -20 14 -9 12 59 -2 73 -13 13 -31 16 -41 5z"/>
<path d="M2693 1195 c0 -27 2 -38 4 -22 2 15 2 37 0 50 -2 12 -4 0 -4 -28z"/>
<path d="M2723 1229 c11 -6 18 -23 18 -47 l2 -37 6 40 c4 26 12 41 23 43 13 3
18 -6 21 -40 l4 -43 -1 45 -1 45 -45 2 c-33 1 -40 -1 -27 -8z"/>
<path d="M2829 1219 c-12 -23 1 -69 20 -69 22 0 41 13 41 29 -1 14 -2 14 -11
-1 -13 -23 -36 -23 -44 1 -12 39 16 66 43 39 8 -8 12 -8 12 -1 0 10 -22 23
-40 23 -5 0 -14 -10 -21 -21z"/>
<path d="M2921 1191 l2 -46 6 40 c4 26 11 40 21 40 10 0 17 -14 21 -40 l7 -40
-2 45 c-1 42 -3 45 -28 46 -27 1 -28 -1 -27 -45z"/>
<path d="M1421 1194 c0 -11 3 -14 6 -6 3 7 2 16 -1 19 -3 4 -6 -2 -5 -13z"/>
<path d="M1712 1180 c0 -19 2 -27 5 -17 2 9 2 25 0 35 -3 9 -5 1 -5 -18z"/>
<path d="M2112 1180 c0 -19 2 -27 5 -17 2 9 2 25 0 35 -3 9 -5 1 -5 -18z"/>
<path d="M1875 1179 c-4 -6 -5 -12 -2 -15 2 -3 7 2 10 11 7 17 1 20 -8 4z"/>
<path d="M1474 1169 c-3 -6 -15 -9 -25 -6 -11 3 -17 1 -13 -4 8 -14 30 -11 44
6 7 8 10 15 7 15 -3 0 -9 -5 -13 -11z"/>
<path d="M4976 575 c-92 -32 -141 -102 -141 -200 0 -101 59 -178 154 -205 47
-13 595 -13 642 0 95 27 154 104 154 205 0 101 -59 178 -154 205 -59 16 -607
12 -655 -5z m384 -145 c0 -5 -9 -10 -20 -10 -11 0 -20 5 -20 10 0 6 9 10 20
10 11 0 20 -4 20 -10z m-252 -12 c14 -14 165 -12 170 2 5 13 32 13 32 0 0 -6
33 -10 80 -10 l80 0 2 -32 1 -33 4 33 c4 33 33 47 33 15 0 -15 1 -15 13 1 8
11 23 17 38 14 20 -2 24 -8 24 -38 0 -29 -4 -36 -23 -38 -13 -2 -30 2 -38 8
-10 9 -14 9 -14 1 0 -7 -21 -11 -55 -11 l-55 0 -2 33 -1 32 -4 -32 c-4 -33 -5
-33 -59 -33 -54 0 -54 0 -56 33 l-1 32 -4 -32 c-3 -20 -10 -33 -19 -33 -9 0
-15 12 -16 33 l-1 32 -4 -32 c-4 -30 -6 -31 -51 -31 -26 0 -52 4 -59 9 -7 7
-13 6 -18 -1 -3 -5 -20 -10 -36 -10 -38 0 -58 37 -41 75 13 27 58 35 80 13z"/>
<path d="M5060 380 c0 -33 6 -36 34 -15 20 15 20 15 0 30 -28 21 -34 18 -34
-15z"/>
<path d="M5152 370 c0 -14 2 -19 5 -12 2 6 2 18 0 25 -3 6 -5 1 -5 -13z"/>
<path d="M5312 370 c0 -14 2 -19 5 -12 2 6 2 18 0 25 -3 6 -5 1 -5 -13z"/>
</g>
</svg>
