<?xml version="1.0" standalone="no"?>
<!DOCTYPE svg PUBLIC "-//W3C//DTD SVG 20010904//EN"
 "http://www.w3.org/TR/2001/REC-SVG-20010904/DTD/svg10.dtd">
<svg version="1.0" xmlns="http://www.w3.org/2000/svg"
 width="210.000000pt" height="149.000000pt" viewBox="0 0 210.000000 149.000000"
 preserveAspectRatio="xMidYMid meet">
<metadata>
Created by potrace 1.16, written by Peter Selinger 2001-2019
</metadata>
<g transform="translate(0.000000,149.000000) scale(0.100000,-0.100000)"
fill="#000000" stroke="none">
<path d="M473 1293 c9 -2 25 -2 35 0 9 3 1 5 -18 5 -19 0 -27 -2 -17 -5z"/>
<path d="M558 1283 c12 -2 32 -2 45 0 12 2 2 4 -23 4 -25 0 -35 -2 -22 -4z"/>
<path d="M679 1270 c13 -6 31 -8 40 -6 9 3 46 1 84 -3 37 -4 64 -4 60 0 -5 4
-53 10 -108 13 -73 5 -94 3 -76 -4z"/>
<path d="M375 1265 c6 -2 150 -18 320 -35 803 -79 861 -85 871 -101 3 -5 10
-7 15 -4 17 11 9 23 -21 30 -16 4 -30 11 -30 17 0 5 -17 9 -37 8 -65 -3 -73
-1 -73 19 0 18 -5 19 -55 14 -34 -4 -71 -1 -95 7 -31 10 -42 10 -54 1 -25 -21
-185 -14 -546 24 -156 16 -310 27 -295 20z"/>
<path d="M948 1263 c7 -3 16 -2 19 1 4 3 -2 6 -13 5 -11 0 -14 -3 -6 -6z"/>
<path d="M1639 1173 c0 -32 -4 -80 -9 -108 l-7 -50 -3 40 c-3 54 -8 29 -15
-87 -7 -97 -7 -98 -31 -92 -14 4 -33 0 -47 -9 -22 -14 -22 -16 -22 -258 0
-233 1 -244 19 -241 10 2 30 1 43 -3 23 -5 24 -9 22 -83 -1 -78 -20 -129 -58
-160 -14 -11 -14 -14 -1 -22 22 -14 24 -13 55 17 41 41 55 84 55 167 l0 75
-32 9 c-30 7 -33 12 -36 53 -2 24 -1 63 3 87 5 34 9 41 19 33 20 -16 26 -3 26
56 0 40 -4 53 -15 53 -10 0 -15 -11 -16 -37 -1 -24 -5 -9 -11 37 -5 41 -7 94
-3 118 7 50 -9 48 218 25 l169 -17 -8 -223 c-4 -129 -3 -223 2 -223 5 0 19 8
31 18 19 15 22 29 25 125 2 59 0 107 -4 107 -4 0 -9 -48 -10 -107 -2 -74 -7
-108 -15 -111 -10 -3 -13 43 -13 207 0 202 1 211 21 221 20 11 20 10 17 -88
-2 -55 0 -98 5 -95 4 2 7 51 7 109 l0 105 -27 -16 c-26 -15 -41 -14 -186 2
l-159 18 2 203 c0 111 -2 202 -5 202 -3 0 -5 -26 -6 -57z m-36 -340 c-7 -2
-21 -2 -30 0 -10 3 -4 5 12 5 17 0 24 -2 18 -5z"/>
<path d="M1685 752 c-3 -3 -5 -27 -5 -53 0 -43 3 -49 25 -55 45 -11 56 1 53
53 -3 44 -5 48 -35 54 -18 3 -35 4 -38 1z"/>
<path d="M1677 513 c-2 -4 -4 -28 -3 -53 1 -42 3 -44 36 -51 19 -4 38 -5 42
-3 10 7 10 91 1 97 -18 11 -71 18 -76 10z"/>
<path d="M154 269 c-11 -18 49 -29 466 -83 234 -31 504 -67 600 -80 172 -24
341 -40 308 -30 -9 3 -22 17 -30 32 -11 23 -20 27 -58 29 -25 1 -83 8 -130 17
-47 8 -107 15 -135 16 -27 0 -71 6 -96 14 -25 8 -81 17 -125 21 -43 3 -106 11
-139 17 -66 11 -213 26 -317 33 -38 2 -77 9 -88 15 -24 13 -248 12 -256 -1z"/>
<path d="M1575 92 c-19 -10 -25 -17 -16 -20 7 -2 23 5 34 17 25 24 23 25 -18
3z"/>
</g>
</svg>
