<?xml version="1.0" standalone="no"?>
<!DOCTYPE svg PUBLIC "-//W3C//DTD SVG 20010904//EN"
 "http://www.w3.org/TR/2001/REC-SVG-20010904/DTD/svg10.dtd">
<svg version="1.0" xmlns="http://www.w3.org/2000/svg"
 width="500.000000pt" height="500.000000pt" viewBox="0 0 500.000000 500.000000"
 preserveAspectRatio="xMidYMid meet">

<g transform="translate(0.000000,500.000000) scale(0.100000,-0.100000)"
fill="#000000" stroke="none">
<path d="M2380 4925 c-101 -29 -173 -72 -259 -157 -315 -309 -516 -951 -555
-1775 l-6 -113 75 0 75 0 0 73 c0 173 40 536 80 732 55 267 123 474 218 665
l67 135 3 -802 2 -803 668 0 667 0 -2 92 c-12 442 -95 903 -223 1243 -194 517
-512 796 -810 710z"/>
<path d="M1622 2712 c-73 -27 -122 -69 -157 -137 l-30 -59 0 -335 c0 -333 0
-337 24 -389 30 -67 98 -127 164 -147 28 -8 85 -15 126 -15 87 0 116 -12 148
-59 23 -33 23 -38 23 -333 0 -330 -4 -354 -61 -383 -39 -21 -180 -20 -220 1
-49 25 -59 64 -59 234 l0 150 -75 0 -75 0 0 -165 c0 -191 14 -245 77 -307 65
-63 122 -82 243 -82 129 0 189 22 251 92 67 76 70 103 67 479 l-3 328 -30 54
c-31 56 -88 106 -148 128 -18 6 -70 12 -115 12 -56 1 -96 7 -118 17 -63 30
-64 38 -64 388 l0 314 25 31 c34 39 84 55 160 49 126 -11 145 -45 145 -258 l0
-150 75 0 75 0 0 158 c0 188 -12 238 -70 305 -60 67 -113 89 -229 94 -76 3
-107 0 -149 -15z"/>
<path d="M2175 2718 c-3 -7 -4 -467 -3 -1023 l3 -1010 210 0 c191 0 214 2 255
21 67 31 106 68 137 132 l28 57 3 308 c4 368 0 392 -69 488 -9 12 -5 24 20 60
47 67 53 122 49 462 -3 291 -4 304 -26 352 -29 64 -64 100 -127 133 -49 26
-55 27 -262 30 -171 3 -214 1 -218 -10z m403 -153 c71 -29 72 -33 72 -389 0
-282 -2 -320 -17 -343 -27 -42 -70 -53 -198 -53 l-115 0 0 393 c0 217 3 397 7
400 13 14 212 7 251 -8z m12 -950 c60 -31 60 -29 60 -383 l0 -324 -34 -34 -34
-34 -131 0 -131 0 0 395 0 395 120 0 c88 0 129 -4 150 -15z"/>
<path d="M2915 2718 c-3 -7 -4 -467 -3 -1023 l3 -1010 210 0 c199 1 213 2 263
24 31 14 69 42 92 69 66 74 70 102 70 456 0 173 -4 327 -10 346 -5 20 -24 57
-40 84 l-31 48 21 23 c11 12 30 45 40 74 18 47 20 78 20 364 0 357 -4 385 -70
460 -22 25 -62 56 -88 69 -44 21 -61 23 -259 26 -171 3 -214 1 -218 -10z m429
-163 c53 -35 56 -57 56 -375 0 -323 -3 -344 -62 -380 -28 -17 -50 -20 -150
-20 l-118 0 0 401 0 401 123 -4 c100 -3 127 -7 151 -23z m6 -950 c47 -41 50
-66 50 -376 0 -394 3 -389 -210 -389 l-120 0 0 396 0 396 129 -4 c112 -3 132
-6 151 -23z"/>
<path d="M1430 293 l0 -238 1053 3 1054 2 6 107 c4 58 7 164 7 235 l0 128
-1060 0 -1060 0 0 -237z m650 2 l0 -95 -255 0 -255 0 0 95 0 95 255 0 255 0 0
-95z"/>
</g>
</svg>
