<?xml version="1.0" standalone="no"?>
<!DOCTYPE svg PUBLIC "-//W3C//DTD SVG 20010904//EN"
 "http://www.w3.org/TR/2001/REC-SVG-20010904/DTD/svg10.dtd">
<svg version="1.0" xmlns="http://www.w3.org/2000/svg"
 width="695.000000pt" height="695.000000pt" viewBox="0 0 695.000000 695.000000"
 preserveAspectRatio="xMidYMid meet">

<g transform="translate(0.000000,695.000000) scale(0.100000,-0.100000)"
fill="#000000" stroke="none">
<path d="M3788 6821 c-131 -42 -385 -198 -533 -327 -244 -214 -367 -433 -385
-687 -8 -116 -15 -139 -50 -157 -9 -5 -116 -21 -236 -35 -696 -81 -1176 -217
-1469 -415 -97 -65 -244 -205 -295 -280 -75 -110 -139 -262 -160 -381 -7 -35
-11 -112 -11 -171 1 -204 46 -379 157 -608 94 -195 184 -336 286 -446 54 -59
63 -86 77 -244 31 -329 146 -700 336 -1085 260 -526 623 -980 1085 -1358 74
-61 178 -148 230 -192 114 -98 328 -252 396 -286 42 -20 64 -24 149 -24 92 0
106 3 167 32 121 57 222 133 588 443 906 766 1368 1579 1456 2563 7 79 7 79
71 154 175 207 336 512 402 765 133 512 -84 955 -594 1211 -335 168 -776 262
-1595 337 -123 12 -226 23 -228 25 -12 12 14 58 72 128 152 183 222 348 245
582 18 178 -12 402 -60 453 -24 26 -28 26 -101 3z m-78 -368 c0 -38 -65 -225
-111 -316 -21 -42 -57 -105 -80 -140 -49 -73 -196 -221 -229 -232 -45 -14 -51
37 -20 159 36 140 131 307 244 424 115 121 196 165 196 105z m155 -1138 c263
-25 493 -67 774 -141 627 -164 938 -461 881 -839 -16 -107 -60 -228 -122 -333
-114 -195 -153 -272 -212 -416 -30 -72 -56 -193 -56 -258 0 -34 10 -112 22
-173 29 -142 30 -349 4 -480 -55 -279 -260 -740 -481 -1085 -146 -227 -387
-531 -547 -688 -247 -243 -596 -485 -720 -499 -69 -8 -170 26 -254 86 -93 65
-292 277 -409 435 -520 705 -713 1391 -580 2054 32 157 64 236 136 332 137
186 389 325 735 408 344 83 1016 79 1407 -9 97 -21 151 -19 161 7 21 55 -20
107 -125 160 -85 42 -266 97 -389 118 -290 48 -828 48 -1420 0 -339 -27 -432
-31 -531 -23 -375 34 -565 208 -562 514 3 304 201 524 597 664 228 80 623 154
971 181 149 12 524 4 720 -15z"/>
</g>
</svg>
