<?xml version="1.0" standalone="no"?>
<!DOCTYPE svg PUBLIC "-//W3C//DTD SVG 20010904//EN"
 "http://www.w3.org/TR/2001/REC-SVG-20010904/DTD/svg10.dtd">
<svg version="1.0" xmlns="http://www.w3.org/2000/svg"
 width="200.000000pt" height="200.000000pt" viewBox="0 0 200.000000 200.000000"
 preserveAspectRatio="xMidYMid meet">
<metadata>
Created by potrace 1.16, written by Peter Selinger 2001-2019
</metadata>
<g transform="translate(0.000000,200.000000) scale(0.100000,-0.100000)"
fill="#000000" stroke="none">
<path d="M537 1983 c-3 -10 -8 -39 -12 -65 -3 -25 -13 -52 -20 -58 -8 -7 -15
-20 -15 -30 0 -10 -18 -42 -40 -71 -45 -61 -47 -72 -21 -116 20 -32 22 -75 6
-156 -8 -42 2 -89 39 -171 15 -37 18 -50 8 -54 -33 -11 11 -65 56 -68 15 -1
30 -3 35 -3 4 -1 7 -13 7 -28 0 -25 -1 -26 -14 -8 -8 12 -19 16 -31 11 -16 -6
-17 -15 -12 -73 6 -59 10 -70 37 -91 34 -27 39 -52 10 -52 -27 0 -27 -43 0
-93 11 -20 20 -45 20 -56 0 -10 12 -36 27 -57 32 -48 45 -90 50 -175 l5 -67
46 -25 c26 -13 58 -27 72 -30 14 -4 41 -27 62 -55 27 -37 48 -53 80 -63 38
-13 43 -17 40 -42 -2 -22 1 -27 18 -27 25 0 88 -64 97 -98 3 -13 0 -34 -7 -47
-11 -20 -10 -29 7 -57 l19 -33 163 -14 c126 -10 172 -11 202 -2 42 13 50 32
25 60 -12 14 -12 21 5 55 10 22 19 45 19 51 0 6 11 22 24 34 14 13 30 36 37
52 10 25 9 32 -7 50 -13 15 -19 37 -19 75 -1 43 -7 62 -31 96 -87 125 -496
721 -528 771 l-37 58 60 267 c34 147 61 270 61 274 0 14 -473 148 -522 148 -9
0 -19 -8 -21 -17z"/>
</g>
</svg>
