<?xml version="1.0" standalone="no"?>
<!DOCTYPE svg PUBLIC "-//W3C//DTD SVG 20010904//EN"
 "http://www.w3.org/TR/2001/REC-SVG-20010904/DTD/svg10.dtd">
<svg version="1.0" xmlns="http://www.w3.org/2000/svg"
 width="512.000000pt" height="512.000000pt" viewBox="0 0 512.000000 512.000000"
 preserveAspectRatio="xMidYMid meet">
<g transform="translate(0.000000,512.000000) scale(0.100000,-0.100000)"
fill="#000000" stroke="none">
<path d="M187 4932 c-147 -147 -188 -194 -185 -211 2 -18 40 15 213 189 175
175 206 210 185 210 -19 0 -69 -44 -213 -188z"/>
<path d="M287 4832 c-227 -227 -288 -294 -285 -311 2 -17 59 35 313 289 255
255 305 310 285 310 -20 0 -89 -64 -313 -288z"/>
<path d="M387 4732 c-307 -307 -388 -393 -385 -411 2 -17 79 55 413 389 335
335 405 410 385 410 -20 0 -109 -84 -413 -388z"/>
<path d="M487 4632 c-388 -388 -488 -493 -485 -511 2 -17 99 74 513 489 415
415 505 510 485 510 -20 0 -129 -104 -513 -488z"/>
<path d="M587 4532 c-468 -468 -588 -593 -585 -611 2 -17 118 94 613 589 495
495 605 610 585 610 -20 0 -149 -124 -613 -588z"/>
<path d="M687 4432 c-548 -548 -688 -693 -685 -711 2 -17 138 114 713 689 575
575 705 710 685 710 -20 0 -169 -144 -713 -688z"/>
<path d="M787 4332 c-629 -629 -788 -793 -785 -811 2 -17 158 133 813 789 655
655 805 810 785 810 -20 0 -189 -164 -813 -788z"/>
<path d="M887 4232 c-709 -709 -888 -893 -885 -911 2 -17 177 153 913 889 735
735 905 910 885 910 -20 0 -209 -184 -913 -888z"/>
<path d="M987 4132 c-789 -789 -988 -993 -985 -1011 2 -17 197 173 1013 989
815 815 1005 1010 985 1010 -20 0 -229 -204 -1013 -988z"/>
<path d="M1087 4032 c-870 -870 -1088 -1093 -1085 -1111 2 -17 217 193 1113
1089 895 895 1105 1110 1085 1110 -20 0 -249 -224 -1113 -1088z"/>
<path d="M1187 3932 c-950 -950 -1188 -1193 -1185 -1211 2 -17 237 212 1213
1189 975 975 1205 1210 1185 1210 -20 0 -269 -244 -1213 -1188z"/>
<path d="M1287 3832 c-1030 -1030 -1288 -1293 -1285 -1311 2 -17 256 232 1313
1289 1055 1055 1305 1310 1285 1310 -20 0 -289 -264 -1313 -1288z"/>
<path d="M1387 3732 c-1110 -1110 -1388 -1393 -1385 -1411 2 -17 276 252 1413
1389 1135 1135 1405 1410 1385 1410 -20 0 -309 -284 -1413 -1388z"/>
<path d="M1487 3632 c-1181 -1181 -1487 -1492 -1487 -1512 0 -20 78 53 423
397 l422 422 24 -51 24 -50 -447 -447 c-349 -349 -446 -451 -446 -471 0 -20
86 61 459 434 l459 458 35 -38 36 -39 -494 -495 c-389 -388 -495 -500 -495
-520 0 -20 96 71 512 487 l513 511 50 -8 c28 -5 57 -9 65 -9 8 -1 -245 -261
-563 -579 -454 -454 -577 -582 -577 -602 0 -20 114 89 598 573 l597 597 63 -6
c34 -4 62 -10 62 -13 0 -3 -297 -303 -660 -666 -521 -521 -660 -665 -660 -685
0 -20 130 105 685 660 551 551 690 684 708 682 12 -2 40 -8 61 -14 l39 -10
-746 -746 c-590 -590 -747 -752 -747 -772 0 -20 147 122 763 738 l763 763 68
-7 68 -7 -831 -831 c-657 -657 -831 -836 -831 -856 0 -20 165 140 853 828
l852 852 75 0 75 0 -928 -928 c-734 -734 -927 -932 -927 -952 0 -20 184 159
949 924 l949 949 38 -8 c21 -4 47 -11 57 -17 18 -9 17 -12 -14 -44 -29 -30
-34 -32 -49 -19 -25 22 -31 18 -19 -12 10 -26 -17 -54 -950 -987 -761 -761
-961 -966 -961 -986 0 -20 188 163 970 945 643 643 971 964 974 955 3 -8 12
-33 20 -56 l14 -41 -989 -989 c-785 -785 -989 -994 -989 -1014 0 -20 192 167
994 969 725 725 995 989 999 977 4 -9 9 -37 12 -63 l6 -48 -1005 -1005 c-798
-797 -1006 -1010 -1006 -1030 0 -20 195 170 1011 985 l1011 1010 -5 -79 -4
-78 -979 -979 c-789 -789 -974 -979 -954 -979 20 0 222 197 972 947 595 595
945 938 941 923 -3 -14 -20 -57 -38 -96 -28 -60 -38 -74 -76 -93 -45 -23 -99
-68 -99 -83 0 -4 15 -8 32 -8 31 0 -22 -55 -762 -795 -643 -643 -790 -795
-770 -795 20 0 191 166 820 795 l795 795 57 0 c53 0 59 2 72 28 8 15 40 52 72
82 55 52 57 56 55 100 -2 38 2 50 23 69 14 14 26 23 26 20 0 -2 5 -31 10 -64
l10 -60 -883 -882 c-712 -713 -877 -883 -857 -883 20 0 187 162 802 777 l778
778 72 -3 71 -4 -774 -774 c-626 -626 -769 -774 -749 -774 20 0 187 162 800
775 l775 775 75 0 75 0 -775 -775 c-627 -627 -770 -775 -750 -775 20 0 187
162 799 774 l775 775 78 3 78 3 -777 -777 c-628 -628 -773 -778 -753 -778 20
0 236 211 1042 1017 745 745 1018 1012 1018 996 0 -12 11 -35 25 -50 l24 -28
-967 -967 c-780 -780 -962 -968 -942 -968 20 0 224 198 980 955 l955 954 34
-40 34 -41 -914 -914 c-738 -738 -909 -914 -889 -914 20 0 198 173 857 832
l833 833 72 -3 71 -4 -829 -829 c-670 -670 -824 -829 -804 -829 20 0 198 173
855 830 l830 830 75 0 75 0 -830 -830 c-671 -671 -825 -830 -805 -830 20 0
216 191 945 920 l920 920 38 -37 37 -38 -882 -882 c-713 -713 -878 -883 -858
-883 20 0 207 182 899 874 l875 875 49 -26 50 -25 -849 -849 c-685 -685 -844
-849 -824 -849 20 0 195 170 838 813 448 446 807 798 798 780 -9 -18 -16 -34
-16 -38 0 -3 24 -5 52 -5 l53 0 -775 -775 c-627 -627 -770 -775 -750 -775 20
0 187 162 800 775 l775 775 75 0 75 0 -775 -775 c-626 -627 -770 -775 -750
-775 37 0 2440 2403 2440 2440 0 20 -84 -59 -450 -425 l-450 -450 26 100 26
100 424 425 c331 332 424 431 424 450 0 20 -78 -53 -422 -397 l-423 -422 -23
52 -23 51 446 446 c348 349 445 450 445 470 0 20 -85 -60 -453 -428 l-454
-454 -17 26 c-45 70 -79 28 445 552 377 376 479 484 479 504 0 20 -90 -65
-485 -460 l-485 -485 0 75 0 75 485 485 c379 380 485 491 485 510 0 20 -90
-65 -474 -449 l-474 -474 20 94 20 94 454 455 c355 356 454 460 454 480 0 20
-83 -58 -443 -418 l-443 -443 9 83 9 83 434 435 c339 340 434 441 434 460 0
20 -82 -57 -438 -413 l-438 -438 -12 63 -12 63 450 450 c353 353 450 455 450
475 0 20 -86 -60 -457 -432 l-458 -457 -23 52 -23 51 481 481 c376 377 480
485 480 505 0 20 -92 -67 -489 -464 l-489 -489 -26 41 c-14 23 -26 45 -26 49
0 5 232 240 515 523 405 405 515 520 515 540 0 20 -99 -74 -528 -503 l-529
-529 -33 42 -33 42 561 561 c442 442 562 567 562 587 0 20 -109 -84 -574 -549
l-574 -574 -29 21 c-17 12 -35 27 -41 35 -9 10 118 142 603 627 485 485 615
620 615 640 0 20 -120 -95 -632 -607 l-633 -632 -49 26 -49 25 681 681 c538
538 682 687 682 707 0 20 -134 -109 -702 -676 -685 -683 -704 -701 -733 -694
-16 4 -43 11 -59 15 -29 6 -6 30 732 768 602 602 762 767 762 787 0 20 -151
-126 -787 -760 l-788 -785 -69 3 -70 3 810 810 c654 654 804 809 784 809 -20
0 -194 -169 -835 -810 l-810 -810 -75 0 -75 0 810 810 c655 655 805 810 785
810 -20 0 -194 -169 -839 -814 l-814 -814 -51 -6 c-28 -4 -67 -9 -86 -12 -31
-5 56 85 790 820 666 667 820 826 800 826 -20 0 -199 -174 -856 -831 l-832
-832 -78 -4 -79 -5 835 836 c674 675 830 836 810 836 -20 0 -198 -173 -851
-826 -898 -898 -835 -843 -899 -794 l-25 19 800 801 c646 646 795 800 775 800
-20 0 -191 -166 -817 -792 l-791 -791 -49 13 c-26 7 -52 15 -57 18 -4 2 340
353 765 778 626 626 769 774 749 774 -20 0 -186 -161 -799 -774 l-773 -774
-54 -6 c-30 -3 -73 -13 -96 -21 -36 -12 66 94 752 780 643 643 790 795 770
795 -20 0 -194 -170 -840 -816 -777 -778 -818 -818 -885 -849 -38 -18 -90 -36
-115 -40 -45 -7 -40 -1 810 849 691 692 850 856 830 856 -20 0 -204 -179 -885
-860 l-860 -860 -75 0 -75 0 860 860 c695 695 855 860 835 860 -20 0 -205
-180 -890 -865 -931 -931 -885 -890 -945 -844 l-27 22 843 843 c682 682 839
844 819 844 -20 0 -198 -172 -854 -829 l-829 -829 -34 16 c-53 25 -78 5 -122
-98 l-37 -84 -81 -36 c-95 -41 -119 -60 -144 -115 -16 -35 -25 -43 -71 -58
-51 -16 -26 10 972 1008 827 827 1020 1025 1000 1025 -20 0 -329 -304 -1513
-1488z m1501 -1428 l44 -26 -183 -184 c-101 -101 -185 -182 -187 -180 -2 2 16
53 39 113 41 104 45 111 137 206 53 53 98 97 100 97 3 0 25 -12 50 -26z m114
-51 c9 -10 19 -31 22 -48 6 -28 -7 -43 -249 -285 -140 -140 -255 -250 -255
-245 0 6 5 44 10 85 l10 75 217 217 c120 120 221 218 224 218 3 0 13 -8 21
-17z"/>
<path d="M3985 1130 c-911 -911 -1125 -1130 -1105 -1130 37 0 2243 2207 2238
2239 -2 17 -221 -196 -1133 -1109z"/>
<path d="M4085 1030 c-831 -831 -1025 -1030 -1005 -1030 37 0 2043 2007 2038
2039 -2 17 -201 -177 -1033 -1009z"/>
<path d="M4185 930 c-751 -751 -925 -930 -905 -930 37 0 1843 1807 1838 1839
-2 17 -181 -157 -933 -909z"/>
<path d="M4285 830 c-671 -671 -825 -830 -805 -830 37 0 1643 1607 1638 1639
-2 17 -162 -137 -833 -809z"/>
<path d="M4385 730 c-591 -591 -725 -730 -705 -730 37 0 1443 1407 1438 1439
-2 17 -142 -118 -733 -709z"/>
<path d="M4485 630 c-511 -511 -625 -630 -605 -630 37 0 1243 1207 1238 1239
-2 17 -122 -98 -633 -609z"/>
<path d="M4585 530 c-431 -431 -525 -530 -505 -530 37 0 1043 1007 1038 1039
-2 17 -103 -78 -533 -509z"/>
<path d="M4685 430 c-351 -351 -425 -430 -405 -430 37 0 843 807 838 839 -2
17 -83 -59 -433 -409z"/>
<path d="M4785 330 c-271 -271 -325 -330 -305 -330 37 0 643 607 638 639 -2
17 -63 -39 -333 -309z"/>
<path d="M4885 230 c-191 -191 -226 -230 -205 -230 37 0 443 407 438 439 -2
18 -44 -19 -233 -209z"/>
</g>
</svg>
