<?xml version="1.0" standalone="no"?>
<!DOCTYPE svg PUBLIC "-//W3C//DTD SVG 20010904//EN"
 "http://www.w3.org/TR/2001/REC-SVG-20010904/DTD/svg10.dtd">
<svg version="1.0" xmlns="http://www.w3.org/2000/svg"
 width="512.000000pt" height="512.000000pt" viewBox="0 0 512.000000 512.000000"
 preserveAspectRatio="xMidYMid meet">

<g transform="translate(0.000000,512.000000) scale(0.100000,-0.100000)"
fill="#000000" stroke="none">
<path d="M2416 4134 c-15 -39 -8 -44 65 -44 64 0 70 -2 64 -19 -17 -56 -164
-593 -173 -636 -21 -98 -23 -135 -12 -192 20 -96 104 -163 206 -163 62 0 125
31 193 96 97 91 153 206 167 338 28 270 -201 367 -363 155 -35 -47 -57 -63
-48 -36 16 47 135 488 135 501 0 24 -225 24 -234 0z m360 -436 c55 -26 70
-147 34 -277 -49 -174 -139 -281 -239 -281 -26 0 -56 7 -67 15 -107 74 -48
364 102 502 64 60 110 71 170 41z"/>
<path d="M1000 4064 c-6 -14 -10 -27 -10 -30 0 -2 36 -4 80 -4 61 0 80 -3 80
-14 0 -11 -190 -795 -206 -848 -5 -15 -18 -18 -89 -18 -77 0 -83 -1 -89 -22
-3 -13 -1 -27 4 -32 15 -15 485 0 565 18 175 40 325 157 404 317 100 203 89
422 -28 539 -95 95 -197 119 -499 120 l-202 0 -10 -26z m520 -60 c68 -23 140
-91 157 -149 37 -126 19 -268 -52 -411 -96 -196 -221 -272 -472 -290 -92 -6
-103 -5 -103 10 0 9 48 208 107 442 l106 427 101 -6 c56 -3 126 -13 156 -23z"/>
<path d="M3910 3972 c-62 -7 -67 -11 -79 -59 -7 -27 -18 -72 -27 -100 l-15
-53 -68 0 c-54 0 -70 -4 -75 -16 -12 -31 -5 -34 63 -34 l70 0 -20 -67 c-66
-229 -111 -425 -104 -459 21 -112 167 -137 256 -44 40 41 112 176 103 191 -14
23 -40 5 -63 -42 -34 -73 -90 -129 -129 -129 -19 0 -41 9 -53 21 -28 28 -24
53 47 319 l57 210 102 0 c104 0 115 4 115 41 0 5 -42 9 -94 9 -52 0 -97 4
-100 8 -3 5 6 49 20 98 13 49 23 94 22 99 -2 6 -14 9 -28 7z"/>
<path d="M2132 3780 c-144 -30 -298 -196 -338 -366 -32 -135 3 -248 94 -302
40 -23 58 -27 122 -27 64 0 83 4 129 30 53 29 151 128 151 151 0 33 -27 21
-84 -34 -68 -68 -115 -92 -177 -92 -84 0 -138 64 -147 175 l-5 63 59 7 c77 10
213 49 273 79 118 60 169 178 113 264 -30 46 -111 68 -190 52z m73 -50 c15 -6
32 -24 41 -45 31 -75 -19 -155 -131 -206 -59 -27 -201 -62 -216 -53 -4 2 1 30
12 61 57 166 195 281 294 243z"/>
<path d="M3233 3776 c-163 -52 -293 -259 -293 -464 0 -88 17 -139 62 -184 83
-83 198 -56 300 72 l43 54 5 -54 c9 -87 36 -120 99 -120 47 0 96 51 143 147
28 59 37 88 30 95 -18 18 -36 2 -56 -48 -37 -94 -88 -141 -123 -113 -25 21
-11 107 62 373 36 132 65 242 65 244 0 1 -21 2 -47 0 l-47 -3 -14 -57 c-8 -32
-17 -58 -21 -58 -3 1 -15 19 -26 42 -35 73 -101 100 -182 74z m122 -68 c38
-30 55 -76 55 -153 0 -220 -204 -469 -318 -389 -38 27 -55 72 -54 149 4 251
195 489 317 393z"/>
<path d="M4370 3774 c-113 -31 -222 -129 -287 -260 -31 -64 -37 -88 -41 -157
-6 -109 9 -161 62 -213 63 -64 142 -79 246 -48 44 13 68 30 129 91 69 69 73
75 58 91 -16 15 -20 13 -62 -35 -73 -83 -175 -122 -248 -94 -43 16 -78 74 -86
138 -10 89 -12 87 97 107 187 35 300 95 342 181 66 136 -47 244 -210 199z
m118 -69 c45 -53 13 -145 -70 -201 -41 -28 -132 -58 -237 -79 l-34 -7 7 33 c9
50 60 148 100 196 47 55 129 96 176 89 20 -3 44 -16 58 -31z"/>
<path d="M2725 3024 c-171 -27 -334 -132 -403 -262 -108 -203 -72 -422 92
-552 63 -49 131 -84 298 -154 176 -73 222 -99 262 -147 25 -29 28 -39 24 -88
-4 -48 -10 -59 -45 -92 -52 -48 -106 -63 -210 -56 -184 11 -317 120 -362 298
l-19 74 -108 0 -109 0 -67 -285 c-36 -157 -63 -289 -59 -293 4 -4 52 -6 105
-5 l98 3 50 90 c27 49 51 91 53 93 2 3 28 -17 57 -43 99 -89 214 -131 383
-142 187 -11 353 45 465 157 100 100 146 224 138 375 -3 67 -10 90 -38 143
-59 110 -136 164 -408 283 -86 38 -178 84 -204 101 -197 135 -32 349 219 284
78 -20 135 -55 173 -107 33 -46 64 -123 75 -187 l7 -43 111 3 111 3 62 265
c35 146 64 268 64 273 0 4 -48 7 -107 7 l-108 0 -29 -53 c-16 -28 -37 -66 -47
-83 l-19 -31 -40 39 c-47 43 -130 88 -208 112 -56 16 -205 28 -257 20z"/>
<path d="M3735 3016 c-90 -42 -107 -100 -165 -571 -17 -137 -39 -305 -50 -373
-11 -67 -20 -126 -20 -131 0 -5 17 -12 38 -16 20 -3 47 -9 58 -11 19 -5 25 6
59 98 21 57 83 220 137 363 175 457 190 514 148 582 -10 18 -30 39 -44 48 -34
23 -124 29 -161 11z"/>
<path d="M4307 2944 l-27 -54 -55 0 c-30 0 -55 -4 -55 -9 0 -5 16 -23 36 -40
l35 -31 -25 -55 c-14 -30 -22 -55 -19 -55 3 0 28 13 54 30 l49 30 34 -30 c18
-17 37 -30 41 -30 4 0 5 25 2 55 l-6 56 50 32 c27 18 49 35 49 40 0 4 -25 7
-55 7 l-54 0 -7 50 c-4 28 -10 52 -13 55 -4 2 -19 -21 -34 -51z"/>
<path d="M725 2978 c-13 -38 -45 -171 -45 -188 0 -18 6 -20 86 -20 77 0 85 -2
80 -17 -3 -10 -47 -182 -97 -383 -88 -350 -92 -370 -93 -480 -1 -111 0 -118
32 -182 82 -168 288 -258 557 -245 201 11 332 63 451 182 121 121 145 182 273
693 l107 427 86 3 86 3 26 104 c14 57 26 107 26 110 0 3 -129 4 -287 3 l-286
-3 -23 -85 c-36 -134 -39 -129 60 -132 l83 -3 -37 -150 c-174 -697 -187 -735
-280 -819 -63 -56 -131 -80 -227 -80 -167 1 -256 92 -238 243 4 31 49 224 101
429 52 204 94 374 94 377 0 2 44 6 97 7 l97 3 27 108 27 107 -389 0 c-303 0
-391 -3 -394 -12z"/>
<path d="M4197 2534 l-27 -54 -55 0 c-30 0 -55 -3 -55 -6 0 -4 17 -22 38 -39
l37 -33 -27 -56 c-15 -31 -25 -56 -21 -56 3 0 28 14 55 31 l48 31 35 -31 c20
-17 38 -31 42 -31 3 0 3 25 1 55 l-5 56 51 37 51 37 -57 3 -56 3 -7 49 c-4 28
-10 52 -14 54 -4 3 -19 -20 -34 -50z"/>
<path d="M4087 2125 l-27 -55 -57 0 -57 0 38 -39 38 -39 -25 -56 c-14 -31 -23
-56 -20 -56 4 0 28 14 55 31 49 31 49 32 71 12 60 -52 59 -52 56 12 l-3 58 53
38 53 38 -59 3 -58 3 -9 53 c-5 28 -12 52 -16 52 -3 0 -18 -25 -33 -55z"/>
<path d="M3435 1771 c-48 -22 -69 -44 -90 -94 -54 -131 69 -258 198 -203 130
56 146 241 24 296 -53 24 -81 25 -132 1z"/>
<path d="M3977 1715 l-27 -55 -57 0 -57 0 39 -40 39 -40 -27 -55 c-15 -30 -25
-55 -22 -55 3 0 28 14 55 31 l51 31 39 -31 c21 -17 40 -31 42 -31 2 0 1 25 -2
56 l-6 57 50 36 51 36 -55 5 -55 5 -9 53 c-5 28 -12 52 -15 52 -4 0 -19 -25
-34 -55z"/>
<path d="M919 1321 c13 -9 6 -53 -35 -198 -12 -42 15 -24 36 24 24 55 47 83
68 83 11 0 13 -7 8 -27 -16 -71 -18 -101 -6 -108 14 -8 56 33 45 43 -3 3 -12
-3 -21 -14 -15 -18 -15 -17 -9 11 18 93 18 105 1 111 -11 4 -29 -2 -47 -15
l-30 -22 7 28 c4 15 11 38 15 51 14 36 11 42 -18 42 -20 0 -24 -3 -14 -9z"/>
<path d="M1390 1320 c12 -7 11 -22 -10 -102 -13 -51 -26 -99 -28 -107 -3 -8 0
-12 8 -9 8 2 18 19 22 36 6 22 15 32 28 32 16 0 20 -7 20 -34 0 -19 5 -38 11
-41 12 -8 49 22 49 39 0 6 -7 3 -14 -6 -19 -25 -26 -22 -26 11 0 17 -4 33 -10
36 -6 4 -4 16 6 31 12 18 20 22 29 14 18 -15 32 7 16 23 -9 9 -21 2 -49 -28
-44 -47 -52 -34 -28 49 20 69 21 66 -11 66 -21 0 -24 -3 -13 -10z"/>
<path d="M2259 1321 c10 -6 12 -19 7 -45 -6 -32 -9 -35 -35 -30 -41 9 -81 -29
-88 -83 -8 -64 21 -91 63 -58 18 15 18 15 -7 9 -34 -7 -43 7 -34 52 6 34 36
74 55 74 22 0 31 -39 15 -76 -11 -26 -12 -41 -5 -55 14 -24 36 -24 50 0 15 29
12 39 -5 17 -28 -36 -28 -6 -1 92 14 54 26 102 26 105 0 4 -12 7 -27 7 -20 0
-24 -3 -14 -9z"/>
<path d="M3169 1321 c13 -9 6 -53 -35 -198 -4 -14 -2 -23 5 -23 6 0 14 15 19
33 5 22 15 33 29 35 19 3 22 -2 25 -35 4 -45 23 -50 45 -13 13 22 13 23 0 8
-20 -25 -27 -22 -27 11 0 17 -4 33 -10 36 -6 4 -4 16 6 31 12 18 20 22 29 14
15 -13 30 3 20 20 -12 19 -34 10 -51 -20 -21 -35 -44 -47 -44 -22 0 9 7 42 15
72 8 30 15 56 15 58 0 1 -12 2 -27 2 -20 0 -24 -3 -14 -9z"/>
<path d="M3853 1323 c9 -2 17 -5 17 -6 0 -1 -11 -43 -25 -92 -29 -106 -30
-124 -9 -132 17 -6 44 20 44 41 0 5 -6 1 -14 -10 -27 -36 -28 -6 -2 89 14 52
26 100 26 106 0 6 -12 10 -27 10 -17 -1 -21 -3 -10 -6z"/>
<path d="M3939 1321 c13 -8 11 -23 -9 -103 -23 -92 -22 -134 2 -126 6 2 18 15
26 29 13 22 13 23 -2 5 -36 -43 -30 1 21 187 4 13 -1 17 -23 17 -21 0 -25 -3
-15 -9z"/>
<path d="M693 1285 c-13 -40 -2 -47 15 -10 9 19 19 25 43 25 20 0 29 -4 26
-12 -3 -7 -13 -49 -24 -92 -13 -57 -23 -80 -35 -84 -34 -9 -18 -22 27 -22 25
0 45 5 45 10 0 6 -7 10 -15 10 -19 0 -19 -1 7 103 21 83 23 87 50 87 24 0 28
-4 28 -27 0 -32 15 -20 24 20 l6 27 -93 0 -94 0 -10 -35z"/>
<path d="M1620 1311 c0 -5 5 -11 12 -13 8 -3 5 -30 -12 -96 -18 -77 -25 -92
-42 -92 -10 0 -16 -4 -13 -10 8 -13 85 -13 85 -1 0 5 -5 11 -11 13 -8 3 -9 18
-4 46 l7 42 55 0 55 0 -7 -37 c-8 -46 -12 -53 -31 -53 -8 0 -14 -4 -14 -10 0
-5 20 -10 45 -10 25 0 45 5 45 10 0 6 -7 10 -15 10 -19 0 -19 -6 6 101 18 73
25 89 40 89 11 0 19 5 19 10 0 6 -20 10 -45 10 -25 0 -45 -4 -45 -10 0 -5 7
-10 16 -10 11 0 14 -6 10 -20 -3 -11 -9 -29 -12 -40 -4 -17 -14 -20 -60 -20
-51 0 -55 2 -50 20 3 11 9 29 12 40 3 11 12 20 20 20 8 0 14 5 14 10 0 6 -18
10 -40 10 -22 0 -40 -4 -40 -9z"/>
<path d="M2500 1300 c-11 -11 -20 -29 -20 -39 0 -21 47 -66 79 -76 29 -9 36
-43 15 -66 -26 -29 -59 -24 -88 13 -28 37 -31 36 -41 -12 -7 -31 -6 -33 8 -22
12 10 21 11 36 3 52 -28 121 2 121 52 0 27 -19 47 -67 71 -50 25 -41 86 12 86
24 0 55 -29 55 -50 0 -22 17 1 24 33 4 16 2 27 -4 27 -5 0 -10 -5 -10 -10 0
-7 -6 -7 -19 0 -31 16 -79 12 -101 -10z"/>
<path d="M3380 1311 c0 -5 7 -11 15 -15 11 -4 15 -24 16 -83 1 -43 4 -89 8
-103 7 -25 7 -25 32 15 14 22 36 60 50 84 l24 44 6 -29 c4 -16 7 -50 8 -76 0
-26 5 -49 10 -53 5 -3 35 40 67 96 31 55 63 103 71 106 24 9 14 23 -17 23 -28
0 -42 -14 -21 -22 5 -1 -11 -38 -36 -81 -25 -43 -46 -77 -48 -75 -1 2 -5 37
-8 79 -6 73 -5 77 16 84 19 7 16 9 -17 12 -41 5 -59 -3 -37 -16 10 -7 3 -26
-32 -86 l-44 -77 -7 32 c-12 62 -7 130 9 130 8 0 15 5 15 10 0 6 -18 10 -40
10 -22 0 -40 -4 -40 -9z"/>
<path d="M1117 1304 c-8 -8 1 -24 14 -24 5 0 9 7 9 15 0 15 -12 20 -23 9z"/>
<path d="M1077 1232 c-10 -10 -17 -23 -17 -28 0 -5 7 0 15 10 22 29 30 12 17
-33 -15 -49 -15 -78 0 -87 12 -7 53 34 43 44 -3 3 -12 -3 -20 -14 -12 -16 -14
-16 -15 -3 0 9 7 35 15 58 22 63 -1 94 -38 53z"/>
<path d="M1183 1238 c-23 -30 -26 -42 -5 -24 31 27 34 17 17 -40 -17 -56 -19
-74 -7 -74 5 0 19 25 31 55 21 51 54 85 68 71 4 -3 0 -31 -7 -61 -18 -76 10
-105 40 -42 11 21 11 21 -4 3 -25 -31 -30 -12 -11 44 13 40 14 54 5 65 -18 21
-30 19 -62 -12 l-28 -27 0 27 c0 29 -20 36 -37 15z"/>
<path d="M1865 1224 c-27 -29 -40 -73 -30 -103 8 -28 43 -37 63 -17 14 14 18
14 35 -2 18 -16 20 -16 33 3 8 10 14 24 14 29 0 6 -5 3 -11 -7 -19 -33 -27 -7
-13 46 18 69 18 83 0 68 -10 -8 -16 -9 -21 -1 -11 18 -45 11 -70 -16z m75 -28
c0 -33 -37 -86 -60 -86 -17 0 -20 7 -20 40 0 51 41 100 65 80 8 -7 15 -22 15
-34z"/>
<path d="M2022 1238 c-17 -17 -15 -33 3 -18 24 20 25 9 9 -54 -8 -32 -13 -61
-10 -64 8 -7 9 -5 39 61 22 48 30 57 46 52 24 -7 38 23 15 32 -10 4 -25 -5
-40 -23 -14 -17 -24 -23 -23 -14 4 41 -14 53 -39 28z"/>
<path d="M2657 1232 c-10 -10 -17 -23 -17 -28 0 -5 7 0 15 10 8 11 18 17 21
13 10 -10 -29 -159 -43 -164 -25 -10 -13 -23 22 -23 19 0 35 5 35 10 0 6 -5
10 -11 10 -6 0 -9 10 -7 23 2 14 9 21 18 18 54 -14 100 27 100 88 0 53 -22 71
-60 49 -24 -14 -29 -14 -34 -2 -7 19 -20 18 -39 -4z m111 -25 c9 -45 -23 -97
-59 -97 -15 0 -19 7 -19 34 0 61 68 115 78 63z"/>
<path d="M2857 1228 c-52 -43 -53 -121 -2 -134 24 -6 83 21 72 33 -3 3 -16 -2
-28 -11 -26 -18 -59 -6 -59 23 0 13 10 21 34 25 39 7 69 37 64 63 -5 27 -48
27 -81 1z m60 -5 c8 -19 -29 -53 -58 -53 -18 0 -19 2 -4 29 21 41 51 53 62 24z"/>
<path d="M3007 1239 c-42 -24 -62 -114 -31 -140 13 -11 21 -11 44 3 24 14 29
14 34 2 3 -8 11 -14 17 -14 13 0 38 30 38 45 0 6 -6 1 -14 -9 -25 -33 -29 -9
-11 55 18 65 16 80 -8 60 -10 -8 -16 -9 -21 -1 -8 13 -25 12 -48 -1z m53 -19
c8 -16 6 -31 -9 -66 -17 -37 -25 -45 -43 -42 -20 3 -23 9 -22 41 1 25 9 46 24
62 28 30 36 31 50 5z"/>
<path d="M3718 1230 c-55 -43 -57 -122 -4 -136 26 -6 66 10 66 28 0 7 -5 7
-14 -2 -23 -18 -61 -8 -64 16 -2 17 3 23 31 28 40 7 70 37 65 63 -5 26 -49 28
-80 3z m59 -6 c7 -20 -14 -41 -49 -49 -35 -9 -37 7 -3 40 28 29 43 31 52 9z"/>
<path d="M2317 1114 c-8 -8 1 -24 14 -24 5 0 9 7 9 15 0 15 -12 20 -23 9z"/>
<path d="M3990 1105 c0 -8 7 -15 15 -15 8 0 15 7 15 15 0 8 -7 15 -15 15 -8 0
-15 -7 -15 -15z"/>
</g>
</svg>
