<?xml version="1.0" standalone="no"?>
<!DOCTYPE svg PUBLIC "-//W3C//DTD SVG 20010904//EN"
 "http://www.w3.org/TR/2001/REC-SVG-20010904/DTD/svg10.dtd">
<svg version="1.0" xmlns="http://www.w3.org/2000/svg"
 width="225.000000pt" height="225.000000pt" viewBox="0 0 225.000000 225.000000"
 preserveAspectRatio="xMidYMid meet">

<g transform="translate(0.000000,225.000000) scale(0.100000,-0.100000)"
fill="#000000" stroke="none">
<path d="M1 1743 c1 -315 5 -486 10 -451 53 361 307 698 644 854 88 41 219 81
303 93 35 5 -136 9 -450 10 l-508 1 1 -507z"/>
<path d="M1294 2239 c80 -12 216 -54 305 -95 217 -100 419 -295 527 -507 35
-68 75 -174 89 -232 4 -16 9 -39 12 -50 2 -11 8 -42 12 -70 5 -29 9 160 10
458 l1 507 -507 -1 c-327 -1 -487 -4 -449 -10z"/>
<path d="M1259 1892 c-23 -18 -227 -144 -367 -227 -193 -115 -232 -143 -232
-172 1 -39 24 -66 58 -66 18 0 96 42 227 123 110 67 249 152 309 189 59 36
112 75 116 86 24 64 -54 110 -111 67z"/>
<path d="M1064 1587 l-301 -182 15 -25 c9 -14 17 -26 18 -28 4 -6 74 35 334
193 140 86 261 159 269 164 11 7 10 13 -4 35 -10 14 -20 26 -24 26 -3 -1 -142
-83 -307 -183z"/>
<path d="M1185 1548 c-110 -66 -226 -136 -258 -156 -31 -19 -59 -38 -62 -42
-2 -3 13 -35 34 -70 l39 -64 -94 -60 c-52 -34 -129 -83 -171 -110 -43 -27
-102 -64 -130 -83 -114 -71 -265 -168 -372 -237 -40 -26 -76 -44 -80 -39 -20
22 -75 216 -84 298 -2 17 -5 -198 -6 -477 l-1 -508 508 1 c291 1 488 5 462 9
-25 5 -63 12 -85 15 -22 4 -49 12 -60 18 -11 6 -22 10 -25 9 -25 -9 -206 76
-305 142 -103 69 -250 214 -297 294 l-17 28 52 28 c29 16 90 49 137 73 47 25
90 49 95 53 6 4 73 40 150 80 77 40 145 76 150 80 6 4 48 28 95 52 47 25 115
61 151 81 l65 36 32 -57 c17 -31 35 -63 40 -70 7 -10 34 2 113 49 87 51 406
246 418 255 5 4 -266 458 -293 491 -1 1 -92 -52 -201 -119z"/>
<path d="M1420 991 c-162 -98 -296 -185 -298 -192 -1 -8 4 -23 12 -34 13 -18
17 -19 38 -6 13 8 91 55 173 104 83 50 166 100 185 112 19 12 71 43 115 69
122 72 120 69 100 100 -10 14 -20 26 -24 25 -3 0 -139 -80 -301 -178z"/>
<path d="M1710 1047 c-41 -24 -147 -88 -235 -142 -88 -54 -197 -120 -242 -147
-91 -54 -107 -80 -80 -122 20 -30 47 -37 83 -21 45 20 587 351 607 371 23 23
22 59 -3 84 -29 29 -46 25 -130 -23z"/>
<path d="M2237 963 c-10 -80 -18 -115 -47 -201 -114 -327 -375 -589 -703 -702
-77 -27 -106 -33 -202 -47 -22 -3 -42 -7 -44 -9 -2 -2 224 -4 502 -4 l507 0 0
505 c0 278 -2 505 -4 505 -2 0 -6 -21 -9 -47z"/>
</g>
</svg>
