<?xml version="1.0" standalone="no"?>
<!DOCTYPE svg PUBLIC "-//W3C//DTD SVG 20010904//EN"
 "http://www.w3.org/TR/2001/REC-SVG-20010904/DTD/svg10.dtd">
<svg version="1.0" xmlns="http://www.w3.org/2000/svg"
 width="110.000000pt" height="89.000000pt" viewBox="0 0 110.000000 89.000000"
 preserveAspectRatio="xMidYMid meet">
<metadata>
Created by potrace 1.10, written by Peter Selinger 2001-2011
</metadata>
<g transform="translate(0.000000,89.000000) scale(0.100000,-0.100000)"
fill="#000000" stroke="none">
<path d="M377 804 c-4 -4 -7 -20 -7 -35 l0 -28 -132 -3 -133 -3 -3 -317 -2
-318 460 0 460 0 -2 318 -3 317 -132 3 -132 3 -3 32 -3 32 -181 3 c-99 1 -183
-1 -187 -4z m353 -44 c0 -19 -7 -20 -170 -20 -163 0 -170 1 -170 20 0 19 7 20
170 20 163 0 170 -1 170 -20z m275 -345 l0 -300 -445 0 -445 0 -3 303 -2 302
447 -2 448 -3 0 -300z"/>
<path d="M130 576 l0 -124 88 -17 c115 -22 292 -32 292 -16 0 6 18 11 45 11
25 0 45 -4 45 -10 0 -15 118 -12 237 6 165 24 153 12 153 154 l0 120 -430 0
-430 0 0 -124z"/>
<path d="M130 283 l0 -153 430 0 430 0 0 153 0 153 -87 -18 c-49 -10 -136 -21
-195 -24 -96 -6 -108 -9 -108 -26 0 -15 -8 -18 -45 -18 -37 0 -45 3 -45 19 0
16 -12 19 -102 25 -57 3 -142 15 -190 24 l-88 18 0 -153z"/>
</g>
</svg>
